<?xml version="1.0" encoding="UTF-8" standalone="no"?>
<!-- Created with Inkscape (http://www.inkscape.org/) -->

<svg
   xmlns:dc="http://purl.org/dc/elements/1.1/"
   xmlns:cc="http://creativecommons.org/ns#"
   xmlns:rdf="http://www.w3.org/1999/02/22-rdf-syntax-ns#"
   xmlns:svg="http://www.w3.org/2000/svg"
   xmlns="http://www.w3.org/2000/svg"
   xmlns:sodipodi="http://sodipodi.sourceforge.net/DTD/sodipodi-0.dtd"
   xmlns:inkscape="http://www.inkscape.org/namespaces/inkscape"
   width="212.29771mm"
   height="110.0162mm"
   viewBox="0 0 212.29772 110.0162"
   version="1.1"
   id="svg8"
   sodipodi:docname="sign_gray.svg"
   inkscape:version="0.92.2 (5c3e80d, 2017-08-06)">
  <defs
     id="defs2" />
  <sodipodi:namedview
     id="base"
     pagecolor="#ffffff"
     bordercolor="#666666"
     borderopacity="1.0"
     inkscape:pageopacity="0.0"
     inkscape:pageshadow="2"
     inkscape:zoom="0.49497475"
     inkscape:cx="-47.170263"
     inkscape:cy="232.45152"
     inkscape:document-units="mm"
     inkscape:current-layer="layer1"
     showgrid="false"
     inkscape:window-width="1600"
     inkscape:window-height="877"
     inkscape:window-x="-8"
     inkscape:window-y="-8"
     inkscape:window-maximized="1"
     fit-margin-top="0"
     fit-margin-left="0"
     fit-margin-right="0"
     fit-margin-bottom="0" />
  <metadata
     id="metadata5">
    <rdf:RDF>
      <cc:Work
         rdf:about="">
        <dc:format>image/svg+xml</dc:format>
        <dc:type
           rdf:resource="http://purl.org/dc/dcmitype/StillImage" />
        <dc:title />
      </cc:Work>
    </rdf:RDF>
  </metadata>
  <g
     inkscape:label="Layer 1"
     inkscape:groupmode="layer"
     id="layer1"
     transform="translate(10.559607,-70.694819)">
    <path
       style="fill:#f0f0ff;fill-opacity:1;stroke:none;stroke-width:0.34029934;stroke-opacity:1"
       id="path10"
       d="m 83.625073,104.81035 c -1.052006,3.64464 -1.927824,7.58034 -2.67733,11.65221 -0.521531,3.3476 -0.963823,6.77994 -1.31371,10.26262 -0.259613,2.69614 -0.291693,5.47223 -0.31695,8.22954 -0.04711,3.11288 0.01104,6.2169 0.08962,9.3223 0.06899,2.24033 0.228005,4.43333 0.458179,6.60165 0.231987,2.31509 0.740201,4.31335 1.321664,6.17764 0.640277,2.23407 1.459071,4.01025 2.33341,5.64953 0.613341,1.01449 1.272213,1.79606 1.942865,2.54087 0.890792,0.99466 1.840759,1.65302 2.793617,2.16888 0.823867,0.42864 1.664972,0.54822 2.504263,0.59628 0.726509,0.15973 1.344058,-0.63472 1.960177,-1.47012 -0.764187,1.08138 -1.522762,2.18751 -2.292578,3.24413 -0.176947,0.24289 0.343283,-0.53052 0.513328,-0.802 0.187372,-0.29915 0.373585,-0.6028 0.55889,-0.90977 0.660326,-1.09389 1.308716,-2.22448 1.951925,-3.37897 1.346835,-2.35714 2.471887,-5.05127 3.467384,-8.29748 0.944754,-3.17798 1.502337,-6.88006 2.009717,-10.58376 0.424,-3.18934 0.689809,-6.46118 0.828703,-9.79542 0.120749,-3.08592 0.127407,-6.16418 -0.0736,-9.22516 -0.127456,-1.7116 -0.252819,-3.56037 -0.665815,-5.02201 -0.243237,-0.86088 -0.392653,-1.06782 -0.71994,-1.73088 -1.125599,-1.65372 -2.46085,-2.02322 -3.7395,-2.33857 -1.546184,-0.47198 -3.068268,0.20916 -4.582116,0.90029 -1.41694,0.45661 -2.793781,1.32846 -4.13324,2.54566 -0.645007,0.62062 -0.743926,0.66265 -1.359669,1.47039 -0.218352,0.28643 -0.858507,1.21292 -0.642426,0.91606 3.35496,-4.60902 2.401318,-3.7365 1.544363,-1.80893 -0.175943,0.39575 -0.33361,0.83871 -0.500411,1.25805 -0.898416,2.52639 -1.396491,5.69272 -1.816611,8.84939 -0.338887,2.72791 -0.420397,5.57571 -0.462863,8.40996 -0.05081,2.72043 0.321454,5.18391 0.797961,7.57723 0.436042,2.03054 1.030038,3.76859 1.615651,5.53193 0,0 -2.758031,4.09029 -2.758031,4.09029 v 0 c -0.586536,-1.83205 -1.181749,-3.64022 -1.624474,-5.72212 -0.497716,-2.49602 -0.911598,-5.07677 -0.876606,-7.91668 0.04307,-2.9003 0.112255,-5.81933 0.441593,-8.62288 0.404948,-3.24456 0.910719,-6.49763 1.769683,-9.18164 0.229577,-0.62855 0.722448,-2.06474 1.018984,-2.5316 1.696246,-2.67052 3.43905,-5.40927 5.340266,-7.12777 1.35583,-1.15145 2.742999,-1.97201 4.164872,-2.44641 1.532713,-0.67496 3.075939,-1.19883 4.635064,-0.72097 1.333445,0.36878 2.726194,0.81049 3.869708,2.68378 0.14394,0.30704 0.29859,0.58569 0.43183,0.92108 0.67449,1.69792 0.90784,4.0473 1.05869,6.32613 0.21348,3.12389 0.22247,6.26196 0.10483,9.41757 -0.1281,3.39838 -0.38675,6.72651 -0.81596,9.97712 -0.50574,3.76243 -1.05053,7.53616 -1.975643,10.81316 -0.986779,3.39178 -2.060133,6.07069 -3.434083,8.51699 -1.954915,3.5936 -3.985514,6.89713 -6.150211,9.68685 -0.659885,0.80768 -1.324369,1.36507 -2.072412,1.1659 -0.843401,-0.10314 -1.687643,-0.2829 -2.511453,-0.76708 -0.969852,-0.57363 -1.939907,-1.23725 -2.849924,-2.26131 -0.690676,-0.76182 -1.361025,-1.61358 -1.976499,-2.71279 -0.877493,-1.72022 -1.68513,-3.61294 -2.355158,-5.84988 -0.611111,-1.93831 -1.159549,-4.00601 -1.412401,-6.41763 -0.23582,-2.22886 -0.396626,-4.47361 -0.455115,-6.78018 -0.07731,-3.12325 -0.14408,-6.24447 -0.103708,-9.37547 0.016,-2.80653 0.02714,-5.63916 0.284639,-8.38792 0.355086,-3.54254 0.825027,-7.01602 1.334837,-10.43837 0.714194,-4.07202 1.632369,-7.88097 2.550626,-11.68611 0,0 2.97108,-3.1936 2.97108,-3.1936 z"
       inkscape:connector-curvature="0" />
    <path
       style="fill:#f0f0ff;fill-opacity:1;stroke:none;stroke-width:0.32629836;stroke-opacity:1"
       id="path14"
       d="m 113.07191,152.14228 c 0.31798,1.06615 0.6196,2.16447 0.97211,3.17499 0.0729,0.20877 0.13883,0.437 0.22961,0.60535 0.0532,0.0987 0.12741,0.11654 0.19112,0.17481 0.8586,-1.9654 -0.2399,0.61023 -2.44301,2.86298 -0.12627,0.12919 0.17415,-0.49697 0.23449,-0.78078 0.3279,-1.54193 0.42422,-3.3632 0.55672,-5.02273 0.29953,-5.05276 0.34104,-10.15595 0.56451,-15.22693 0.17979,-3.55806 0.38153,-7.11109 0.58323,-10.6632 0.21372,-2.91087 0.50059,-5.78636 0.69216,-8.70578 0.11235,-2.07925 0.20798,-4.17063 0.21967,-6.26744 -0.49597,-2.39124 -0.12576,-0.45199 2.91481,-3.18495 0.0481,-0.0434 0.002,0.23608 -8.3e-4,0.35382 -0.0165,0.63835 -0.0681,1.27417 -0.10455,1.90739 -0.17784,3.02308 -0.26721,6.06077 -0.3289,9.10613 -0.12834,5.8135 -0.0939,11.62314 0.0713,17.42865 0.10648,3.18921 0.31791,6.35847 0.78786,9.37747 0.19652,1.14251 0.42755,2.24137 0.79877,3.14112 0.0366,0.048 0.0683,0.16196 0.10986,0.14428 0.0336,-0.0149 0.0751,-0.24641 0.0448,-0.21031 -0.92462,1.10176 -1.82284,2.31574 -2.74508,3.42785 -0.0454,0.0547 0.0802,-0.15172 0.10894,-0.24888 0.0783,-0.26417 0.1677,-0.8009 0.21893,-1.08249 0.0869,-0.62077 0.18108,-1.23165 0.28949,-1.83433 0,0 2.94121,-3.04973 2.94121,-3.04973 v 0 c -0.13564,0.56708 -0.24348,1.1451 -0.30252,1.78219 -0.031,0.20622 -0.062,0.41245 -0.093,0.61869 -0.0307,0.17964 -0.0643,0.35659 -0.0918,0.53872 -0.0226,0.14893 2e-4,0.37004 -0.0584,0.45361 -1.59762,2.2775 -2.1769,5.40204 -3.19628,3.28252 -0.3776,-1.0165 -0.63751,-2.18169 -0.83161,-3.43696 -0.44463,-3.13463 -0.63295,-6.39587 -0.71676,-9.68119 -0.13572,-5.81509 -0.1765,-11.63029 -0.11336,-17.45327 0.0289,-3.02225 0.0771,-6.0399 0.21898,-9.04678 0.19298,-4.35335 -0.11464,-1.67323 3.03836,-5.51068 0.0226,-0.0274 -0.0339,-0.0871 -0.0508,-0.13069 -0.14224,2.12256 -0.15095,4.285 -0.30046,6.40668 -0.17715,2.91203 -0.42083,5.79574 -0.67213,8.67882 -0.23074,3.56968 -0.44657,7.14621 -0.65726,10.72225 -0.25428,5.06817 -0.29161,10.16351 -0.53054,15.23339 -0.28038,4.32063 -0.66866,11.6691 -3.8726,10.0737 -0.62079,-1.08435 -0.94316,-2.81922 -1.44866,-4.15404 0,0 2.77188,-3.80428 2.77188,-3.80428 z"
       inkscape:connector-curvature="0" />
    <path
       style="fill:#f0f0ff;fill-opacity:1;stroke:none;stroke-width:0.32629836;stroke-opacity:1"
       id="path18"
       d="m 131.96973,115.11031 c -0.10594,2.71325 -0.25197,5.41491 -0.34296,8.13156 -0.0717,2.84169 -0.15799,5.69242 -0.0361,8.53108 0.12786,2.23858 0.61724,4.1421 1.20711,5.90218 0.3236,0.91338 0.69291,1.74245 1.08004,2.51499 0,0 -2.74119,3.86598 -2.74119,3.86598 v 0 c -0.3845,-0.8359 -0.75603,-1.7095 -1.08591,-2.66047 -0.6201,-1.8657 -1.13893,-3.90417 -1.28254,-6.26231 -0.13588,-2.88829 -0.036,-5.78003 0.0361,-8.67342 0.0823,-2.66816 0.21169,-5.3265 0.27764,-7.99666 0,0 2.88779,-3.35293 2.88779,-3.35293 z"
       inkscape:connector-curvature="0" />
    <path
       style="fill:#f0f0ff;fill-opacity:1;stroke:none;stroke-width:0.32629836;stroke-opacity:1"
       id="path26"
       d="m 133.35882,129.38431 c 0.99149,-0.42109 1.97588,-0.94101 2.95967,-1.45107 1.05238,-0.61092 2.12786,-0.88916 3.20118,-1.21858 1.23494,-0.37028 2.46996,-0.7169 3.71234,-0.92892 0.62466,-0.0961 1.44575,-0.41485 1.77527,1.16178 0.0557,0.26644 0.0738,0.56579 0.1107,0.84869 0.10858,2.37628 -0.35373,4.52433 -0.81188,6.58244 -0.55375,2.17079 -1.13752,4.29518 -1.60863,6.56799 -0.29156,1.36115 -0.41002,2.82116 -0.46232,4.31566 -0.0176,1.27761 0.17796,2.37749 0.51846,3.36228 0.48803,1.32831 1.23539,1.90909 1.90947,2.6044 0.84711,0.82568 1.76686,1.04658 2.6767,1.18862 0.85674,0.0788 1.71535,0.20732 2.56033,-0.17592 0.10711,-0.091 0.21866,-0.15862 0.32134,-0.27331 0.0875,-0.0977 0.33108,-0.46916 0.24609,-0.36029 -2.50746,3.21165 -3.40442,4.71294 -2.50488,3.21913 0,0 2.97724,-2.98342 2.97724,-2.98342 v 0 c -0.46952,3.01103 -2.31149,3.94727 -3.60653,4.79065 -0.86338,0.24027 -1.73473,0.14242 -2.60129,0.0274 -0.93444,-0.19979 -1.87356,-0.50844 -2.7365,-1.39894 -0.72443,-0.74417 -1.50178,-1.41883 -2.01332,-2.87427 -0.39482,-1.16359 -0.61024,-2.34054 -0.63101,-3.83135 0.0353,-1.57996 0.1372,-3.13967 0.43533,-4.5874 0.46434,-2.30135 1.03772,-4.4599 1.62115,-6.61325 0.43761,-1.89799 0.90129,-3.85039 0.87876,-6.05935 -0.0192,-0.19948 -0.0216,-0.41148 -0.0576,-0.59845 -0.21207,-1.09988 -1.17187,-0.59863 -1.5559,-0.60805 -1.23929,0.21954 -2.47081,0.57884 -3.70215,0.96273 -1.07179,0.32307 -2.1385,0.69077 -3.18998,1.27758 -1.00039,0.49522 -1.99658,1.02919 -2.99765,1.5168 0,0 2.57561,-4.46346 2.57561,-4.46346 z"
       inkscape:connector-curvature="0" />
    <path
       style="fill:#f0f0ff;fill-opacity:1;stroke:none;stroke-width:0.32629836;stroke-opacity:1"
       id="path28"
       d="m 142.41549,114.19682 c -0.22232,1.74567 -0.26512,3.56478 -0.21304,5.36905 0.0267,1.28108 0.2129,2.33021 0.64839,3.13906 0.5056,0.98552 1.12127,1.35726 1.75967,1.63179 0.75418,0.2616 1.51875,0.27353 2.27983,0.28349 0.118,-0.0529 0.23645,-0.1009 0.35399,-0.15879 0.33365,-0.16439 0.36847,-0.16681 0.67933,-0.51283 0.11081,-0.12324 0.43162,-0.54422 0.32411,-0.40651 -2.54134,3.25569 -3.09134,4.46907 -2.095,2.4388 0.62634,-1.48623 0.95181,-3.32497 1.14553,-5.30124 0.0814,-1.3897 0.24693,-2.88513 0.0185,-4.23555 -0.0977,-0.35127 -0.14439,-0.58597 -0.29611,-0.84628 -0.39809,-0.68299 -1.05967,-1.04729 -1.52377,-1.40955 -1.01347,-0.71815 -2.06895,-0.99005 -3.12355,-1.14426 -1.13537,0.34583 -2.79055,2.84849 1.86193,-2.8255 0.0915,-0.1117 -0.173,0.26627 -0.24697,0.43222 -0.22519,0.5053 -0.27204,0.80449 -0.4268,1.43322 -0.44005,1.97687 -0.83121,4.00748 -1.26892,5.9866 -0.247,1.19915 -0.58287,2.26907 -0.95386,3.2804 0,0 -2.96192,2.83564 -2.96192,2.83564 v 0 c 0.39816,-0.92779 0.75343,-1.94371 1.00056,-3.12305 0.45769,-1.94667 0.83353,-3.9834 1.2617,-5.96414 0.13353,-0.69453 0.17996,-1.03435 0.36977,-1.65097 0.86316,-2.80416 2.47495,-4.64169 3.97133,-4.64964 1.0668,0.22539 2.13197,0.56487 3.15569,1.31459 0.74942,0.57605 1.60241,1.03455 2.00367,2.74357 0.27538,1.57015 0.14524,3.00779 0.0453,4.6417 -0.18137,2.07258 -0.46788,4.03044 -1.07167,5.68379 -1.06983,2.76838 -0.25679,0.81968 -3.37687,4.93044 -0.43595,0.57436 -0.95726,0.72808 -1.44904,0.8058 -0.77367,-0.0326 -1.55191,-0.0625 -2.31404,-0.40217 -0.68097,-0.35444 -1.33189,-0.84296 -1.86535,-1.91866 -0.4747,-0.98004 -0.72632,-2.18464 -0.75683,-3.65976 -0.0684,-1.85584 -0.0235,-3.72551 0.14233,-5.55164 0,0 2.92203,-3.18967 2.92203,-3.18967 z"
       inkscape:connector-curvature="0" />
    <path
       style="fill:#f0f0ff;fill-opacity:1;stroke:none;stroke-width:0.32629836;stroke-opacity:1"
       id="path30"
       d="m 151.98431,103.8226 c -0.38286,1.39175 -0.6924,2.86779 -0.98527,4.36512 -0.25866,1.1633 -0.38018,2.41092 -0.44127,3.69658 -0.0395,1.00823 -0.0639,2.01987 0.0679,2.99688 0.15819,0.84769 0.34859,1.40274 0.75152,1.58296 0.74595,0.22163 1.48024,0.59733 2.2252,0.8367 0.8406,0.238 1.68787,0.30362 2.53404,0.33344 0.31121,-0.009 0.6494,0.0149 0.95422,-0.16773 0.69408,-0.4153 4.35697,-5.46996 -1.9033,2.58998 0.56944,-0.77121 1.02399,-1.84795 1.41589,-3.04895 0.30609,-1.04253 0.38275,-2.26172 0.42295,-3.48333 0.0184,-1.18921 -0.23668,-2.07576 -0.60216,-2.8573 -0.49102,-0.75918 -1.01871,-1.42003 -1.58419,-1.84195 -0.44521,-0.25265 -0.91197,-0.38769 -1.36687,-0.22482 -0.73276,0.26678 -1.45125,0.77614 -2.15897,1.28441 -0.45454,0.38218 -0.9185,0.69935 -1.37789,1.04923 0,0 2.52409,-4.46671 2.52409,-4.46671 v 0 c 0.46164,-0.34532 0.92364,-0.68818 1.38426,-1.04054 0.73074,-0.49907 1.46676,-1.04797 2.22979,-1.20787 0.49044,-0.0168 0.98,0.1063 1.44403,0.48967 0.58575,0.53325 1.15469,1.23062 1.65536,2.104 0.41662,0.93952 0.72415,2.03161 0.73923,3.41132 -0.0286,1.32272 -0.0854,2.64365 -0.35097,3.84749 -0.36423,1.28899 -0.81254,2.47009 -1.3757,3.32651 -1.9493,2.57373 -2.70031,4.71957 -4.6564,4.53086 -0.84993,-0.0613 -1.70013,-0.16755 -2.5435,-0.42654 -0.76359,-0.26011 -1.52578,-0.56047 -2.28416,-0.88698 -0.45754,-0.4261 -0.72146,-1.14425 -0.91718,-2.17562 -0.15799,-1.06639 -0.16907,-2.15948 -0.1211,-3.27485 0.0511,-1.3531 0.13902,-2.69818 0.40766,-3.92919 0.30169,-1.47884 0.56546,-3.00634 0.96363,-4.37216 0,0 2.94919,-3.04052 2.94919,-3.04052 z"
       inkscape:connector-curvature="0" />
    <path
       style="fill:#f0f0ff;fill-opacity:1;stroke:none;stroke-width:0.31161073;stroke-opacity:1"
       id="path44"
       d="m 151.98429,103.82255 c 1.61157,-0.65613 3.28079,-1.20994 4.92336,-1.81271 2.54079,-0.97138 5.11433,-1.88156 7.66257,-2.840336 3.43042,-1.303508 6.83887,-2.639323 10.13965,-4.13235 3.23172,-1.567261 6.44826,-3.168647 9.47757,-4.925337 2.72123,-1.575463 5.12289,-3.352092 7.56534,-5.099926 1.32829,-0.943818 2.51795,-1.953797 3.68636,-2.96908 0.41413,-0.359846 1.62953,-1.449461 1.23243,-1.083353 -3.29486,3.037711 -2.9721,2.757036 -1.43407,1.129995 1.07183,-1.222354 1.97879,-2.503909 2.29912,-3.788379 0.16577,-0.664836 0.1143,-0.891049 0.0942,-1.517911 -0.41227,-1.722739 -1.90795,-2.107857 -4.30432,-2.530528 -4.7106,-0.523629 -9.77578,0.330163 -14.85383,1.297385 -5.37446,1.158672 -10.72017,2.72495 -15.82575,4.697778 -0.82828,0.320087 -1.63536,0.673251 -2.45269,1.010433 -1.91331,0.882139 -3.72373,1.849074 -5.20242,3.055422 -0.41208,0.336196 -1.54919,1.383885 -1.14474,1.044472 2.76773,-2.322771 3.3137,-3.199084 1.78482,-1.201545 -1.0792,1.560885 -1.63978,3.144528 -2.13968,4.718056 0,0 -4.06834,3.180818 -4.06834,3.180818 v 0 c 0.47838,-1.584509 1.00665,-3.179241 2.0113,-4.75983 1.83099,-2.556404 0.70262,-1.13106 5.32297,-5.495264 1.71297,-1.618004 4.02209,-2.885437 6.50837,-3.962762 0.81742,-0.323593 1.62627,-0.661656 2.45248,-0.970521 5.15727,-1.927892 10.52444,-3.478392 15.9223,-4.64399 5.14844,-0.979136 10.45743,-1.88692 15.24937,-1.386014 2.66389,0.445257 4.17291,0.819487 4.78848,2.662437 0.0477,0.625992 0.11162,0.912692 -0.0157,1.577002 -0.25201,1.315095 -1.12325,2.640213 -2.19319,3.905325 -3.08987,3.338466 -6.66232,6.591137 -10.69884,9.582338 -2.44659,1.753633 -4.87898,3.522427 -7.63404,5.08155 -3.06841,1.732409 -6.27577,3.350088 -9.53855,4.894116 -3.33617,1.481199 -6.7632,2.831499 -10.21062,4.148199 -2.56904,0.97217 -5.15587,1.91227 -7.71954,2.89383 -1.66221,0.61153 -3.35005,1.18471 -4.95698,1.88726 0,0 3.27263,-3.64653 3.27263,-3.64653 z"
       inkscape:connector-curvature="0" />
    <path
       style="fill:#f0f0ff;fill-opacity:1;stroke:none;stroke-width:0.32629836;stroke-opacity:1"
       id="path52"
       d="m 50.179346,154.14283 c -1.148907,-4.74607 -2.976438,-8.41088 -4.723733,-11.99118 -1.75518,-3.63426 -3.65277,-6.89067 -5.40208,-10.53829 -0.341483,-0.83246 -0.881189,-1.86255 -0.849667,-3.15845 0.0052,-0.21392 -0.0051,-0.50216 0.07312,-0.62074 0.973838,-1.47508 2.013709,-2.71017 3.020562,-4.06525 1.537891,0.12734 3.24481,1.38442 4.603426,2.94984 0.685912,0.79032 1.337952,1.72484 2.006928,2.58724 0.91799,1.32113 1.84398,2.6138 2.753971,3.96335 8.636704,12.80848 -1.8769,-2.49623 7.330198,11.03384 3.517497,5.16906 7.086334,10.12793 10.684806,14.99632 3.541764,4.98225 7.32197,8.96458 10.986488,13.4293 0.357213,0.50996 1.688198,2.01403 1.40127,3.49711 -0.04428,0.22907 -0.145855,0.37445 -0.218785,0.56168 -1.08935,1.26031 -2.143914,2.69069 -3.268045,3.78089 -0.232532,0.22552 -0.503648,0.10519 -0.756256,0.12194 -0.375809,0.025 -0.752097,0.0283 -1.127907,0.004 -1.219223,-0.0808 -2.332229,-0.28458 -3.54965,-0.68317 -0.833624,-0.27294 -1.660315,-0.64633 -2.490473,-0.96949 -2.220322,-1.05774 -4.517943,-2.11385 -6.717322,-3.33923 -1.702642,-0.94862 -3.392793,-2.01024 -5.091624,-2.99371 -6.39123,-3.6999 -12.796447,-7.27427 -19.190383,-10.95006 -8.824126,-4.92542 -17.578608,-10.51195 -26.145336,-17.42889 -4.9207038,-3.97307 -6.0159849,-5.15613 -10.6735041,-9.54788 -3.30522293,-3.38477 -6.630233,-6.8025 -9.7011052,-11.22584 -0.8537345,-1.22973 -2.1121813,-3.24366 -2.8587537,-4.99365 -0.2409974,-0.56492 -0.418942,-1.2536 -0.628412,-1.88038 -0.0689,-0.52798 -0.206379,-1.03312 -0.206685,-1.58394 -6.48e-4,-1.21069 0.38345,-2.0009 0.8047661,-2.54467 1.1782871,-1.52079 2.3685045,-3.00716 3.6012395,-4.28433 0.3118586,-0.32311 2.1690974,-1.04949 2.4266706,-1.15761 3.7337368,-1.47947 7.513501,-2.03385 11.294488,-2.37941 7.5245568,-0.40517 15.0373058,0.87615 22.5452148,1.78878 2.830659,0.34407 5.662162,0.65123 8.493241,0.97683 21.561465,2.00689 43.144299,2.30301 64.720756,2.45531 10.98133,0.0168 21.97584,-0.0754 32.93652,-1.79958 4.72693,-0.74354 5.78252,-1.11854 10.25556,-2.27369 2.94043,-0.83277 5.86131,-1.99641 8.73981,-3.59887 0.61433,-0.34198 2.03733,-1.16207 2.70937,-1.80857 0.20632,-0.19851 0.38607,-0.517557 0.57912,-0.776344 -0.85643,1.056334 -1.69958,2.170664 -2.5693,3.169014 -0.0339,0.0389 -0.0695,-0.0702 -0.1052,-0.0989 -0.11452,-0.0918 -0.22808,-0.19257 -0.34554,-0.26251 -0.39292,-0.23393 -0.63528,-0.28438 -1.04011,-0.41556 0,0 2.60473,-4.173124 2.60473,-4.173124 v 0 c 0.48373,0.187766 1.14416,0.277776 1.54125,1.040736 1.29385,2.485938 -1.91398,4.272728 -2.55869,5.263238 -1.00294,1.02849 -2.06325,1.55232 -3.13734,2.08082 -2.7878,1.37172 -5.60939,2.34795 -8.44656,3.01179 -4.36374,0.92716 -5.37355,1.23331 -9.98662,1.78499 -10.81385,1.29327 -21.64919,1.1519 -32.47334,1.0001 -21.645542,-0.45034 -43.291494,-0.96914 -64.932457,-2.12176 -2.928133,-0.16867 -5.856827,-0.29215 -8.784394,-0.5057 -2.175191,-0.15861 -4.348564,-0.4293 -6.523409,-0.61092 -5.511136,-0.46018 -11.02893,-0.72669 -16.5420019,-0.24857 -3.8221176,0.45615 -7.6445025,1.10365 -11.4128862,2.70418 -0.4381738,0.20638 -0.8794284,0.38136 -1.3145262,0.61917 -0.3793779,0.20735 -1.3617406,1.4265 -1.1275058,0.71554 0.4299951,-1.30515 1.2122192,-1.74466 1.7871736,-2.71779 0.1933895,-0.32733 -0.4503441,0.42917 -0.6381349,0.773 -0.4740403,0.86794 -0.3032075,1.14696 -0.2152965,2.37699 0.1763883,0.61518 0.3192579,1.28767 0.5291631,1.84553 0.6926024,1.84076 1.8173543,3.82159 2.6504775,5.13893 2.9214839,4.61952 6.1267774,8.21306 9.3306403,11.67485 4.4957842,4.47388 5.699422,5.84877 10.471828,9.80969 8.531984,7.08124 17.320274,12.35628 26.114569,17.42829 10.468136,5.94484 20.949748,11.9088 31.567485,16.31853 2.145264,0.69594 2.56298,0.95687 4.607214,1.19274 0.851737,0.0983 1.884174,0.0933 2.751553,-0.0786 0.257583,-0.051 0.962613,-0.63682 0.767904,-0.24918 -0.676984,1.34772 -1.522699,2.17831 -2.284049,3.26749 0.103634,-0.0411 0.391815,-0.1009 0.420909,-0.28154 0.113409,-0.70439 -1.057854,-2.33337 -1.198703,-2.55206 -3.507582,-4.78196 -7.176672,-8.93955 -10.611468,-14.00735 -3.543114,-4.99655 -7.063207,-10.06951 -10.575673,-15.1773 -2.505601,-3.6436 -4.953019,-7.2831 -7.505125,-10.75268 -0.948182,-1.28906 -1.918346,-2.49223 -2.87752,-3.73834 -1.615104,-1.81252 -2.93323,-3.39526 -4.681159,-4.33066 -0.409991,-0.2194 -1.145631,-0.50056 -1.6058,-0.44622 -0.144634,0.0168 -0.283433,0.13608 -0.42515,0.20411 0.823509,-1.1583 1.649159,-2.30874 2.470526,-3.47492 0.05296,-0.0752 -0.13137,0.0817 -0.164997,0.20152 -0.03555,0.1266 -0.02766,0.30057 -0.01767,0.44916 0.06349,0.94526 0.424028,1.64256 0.678535,2.31692 1.677738,3.76513 3.528212,7.10173 5.27693,10.69017 1.795677,3.63796 3.635236,7.33356 4.955924,11.95821 0,0 -2.793939,3.6552 -2.793939,3.6552 z"
       inkscape:connector-curvature="0" />
    <path
       style="fill:#f0f0ff;fill-opacity:1;stroke:none;stroke-width:0.32629836;stroke-opacity:1"
       id="path54"
       d="m 49.933547,150.8634 c 0.631059,-0.0506 1.23747,-0.44966 1.856477,-0.69065 0.378033,-0.0765 0.739227,-0.17834 1.104193,-0.40696 0,0 -2.579085,4.48403 -2.579085,4.48403 v 0 c -0.365184,0.1696 -0.739038,0.18978 -1.104971,0.35531 -0.62241,0.26581 -1.242761,0.54418 -1.874568,0.67291 0,0 2.597954,-4.41464 2.597954,-4.41464 z"
       inkscape:connector-curvature="0" />
    <path
       style="fill:#f0f0ff;fill-opacity:1;stroke:none;stroke-width:0.32629836;stroke-opacity:1"
       id="path88"
       d="m 121.69651,109.28127 c -0.10715,2.85852 -0.18251,5.72206 -0.2758,8.58304 -0.10785,3.16879 -0.14975,6.34567 -0.17429,9.52254 -0.0107,2.58956 -0.0126,5.17928 -0.015,7.76893 0.002,1.89612 -0.0386,3.79741 0.10188,5.67589 0.0855,1.14476 0.15696,1.60211 0.29558,2.7086 0.2635,1.60095 0.55266,3.3368 1.12543,4.50322 0.0721,0.0951 0.23098,0.36838 0.3389,0.30401 0.0509,-0.0303 0.16778,-0.28593 0.12147,-0.22923 -0.88134,1.07903 -1.74249,2.24327 -2.62917,3.2994 -0.0789,0.094 0.14098,-0.25227 0.19949,-0.40541 0.077,-0.20154 0.13634,-0.43477 0.20451,-0.65215 0.63552,-2.83386 0.83922,-6.07464 1.0893,-9.17596 0.24152,-3.45688 0.50296,-6.90765 0.70141,-10.3791 0.24514,-4.10184 0.63487,-8.15383 1.01113,-12.20191 0.29212,-3.14905 0.69881,-6.23487 0.98633,-9.38597 0.37728,-3.74854 0.81245,-3.27812 3.28715,-4.55102 0.12875,-0.0663 0.01,0.6011 0.0147,0.90165 -0.0539,2.08434 -0.16893,4.15539 -0.22582,6.23995 -0.053,2.38399 -0.0619,4.77167 -0.0733,7.15815 -0.005,3.52172 -0.0446,7.0453 0.017,10.56518 0.0574,2.4746 0.30332,4.85729 0.63828,7.20224 0.19373,1.34474 0.52563,2.55554 0.89203,3.68873 0.25853,0.79297 0.22866,1.08275 0.50079,0.33029 -4.59915,6.31075 -2.78725,4.42821 -2.0328,1.82725 0.22893,-0.93168 0.50371,-1.80161 0.73762,-2.72494 0.0199,-0.11002 0.0397,-0.22006 0.0594,-0.33009 0,0 2.93424,-3.16575 2.93424,-3.16575 v 0 c -0.0137,0.14558 -0.0275,0.29111 -0.0411,0.43667 -0.11944,0.68399 -0.326,1.17645 -0.4819,1.80995 -0.0429,0.17406 -0.0703,0.36671 -0.11455,0.53906 -0.0401,0.15638 -0.0917,0.29595 -0.13765,0.44391 -0.7336,3.16797 -1.85131,3.84546 -3.46337,5.80138 -0.36842,0.10705 -0.57099,-0.56532 -0.75016,-1.21824 -0.368,-1.22329 -0.70974,-2.50753 -0.90689,-3.93024 -0.33066,-2.42294 -0.60167,-4.86717 -0.64155,-7.42089 -0.0517,-3.52347 -0.006,-7.05126 -0.0351,-10.57626 -0.005,-2.38925 -0.0137,-4.78025 0.0416,-7.16723 0.0511,-2.05936 0.14364,-4.10753 0.22541,-6.16076 -0.0539,-3.36283 -0.11452,-0.50849 2.89117,-4.52733 0.0345,-0.0462 -0.0867,-0.062 -0.12014,-0.0112 -0.2102,0.31513 -0.23733,1.21287 -0.32917,1.66441 -0.31522,3.1877 -0.77401,6.29025 -1.07759,9.48505 -0.38328,4.0042 -0.72005,8.03344 -0.97183,12.09234 -0.19766,3.49333 -0.47763,6.95816 -0.71728,10.43729 -0.24691,3.14006 -0.44364,6.36574 -0.96551,9.34125 -0.69854,3.02315 -2.60532,6.97517 -3.93011,4.50406 -0.57346,-1.35523 -0.89202,-3.14277 -1.15998,-4.89828 -0.36175,-2.87532 -0.51685,-5.56084 -0.44149,-8.55942 -0.003,-2.59523 -0.009,-5.19072 0.0158,-7.78558 0.0285,-3.19799 0.0879,-6.39414 0.19079,-9.58452 0.0872,-2.81286 0.14667,-5.62736 0.2061,-8.44389 0,0 2.88397,-3.34847 2.88397,-3.34847 z"
       inkscape:connector-curvature="0" />
    <path
       style="fill:#f0f0ff;fill-opacity:1;stroke:none;stroke-width:0.32629836;stroke-opacity:1"
       id="path90"
       d="m 109.34919,124.23802 c -0.55518,-2.00625 -1.25256,-3.78522 -1.935,-5.56859 -0.42523,-0.9946 -0.80112,-2.1149 -1.39721,-2.55746 -0.22832,-0.0477 -0.54083,-0.3315 -0.76134,-0.053 -0.056,0.0707 -0.19737,0.36685 -0.14121,0.29673 0.87991,-1.09905 1.74479,-2.25952 2.61719,-3.38929 -0.40897,0.98407 -0.41242,2.51481 -0.41381,3.79656 -0.0139,2.05641 0.38654,3.8912 0.72138,5.74728 0.40685,1.88023 0.81303,3.783 1.32264,5.53338 0.0936,0.47595 0.27824,0.80705 0.39431,1.24697 0.75537,2.86302 -1.78778,2.88694 -2.88995,4.08763 -0.91329,-1.29383 -1.80508,-2.66428 -2.71034,-3.98643 -0.53079,-0.79697 -1.01533,-1.80448 -1.63264,-2.2275 -0.23439,-0.14614 -0.46975,-0.16271 -0.69763,0.0579 -0.0685,0.0663 -0.25736,0.34202 -0.19233,0.25925 2.6492,-3.37211 3.29088,-4.96025 2.45365,-2.9761 -0.30843,1.14871 -0.38789,2.50859 -0.45345,3.82185 -0.0939,2.34226 -0.0787,4.6919 -0.0246,7.03717 0.077,3.10849 0.17063,6.22256 0.38147,9.30043 0.16118,2.64801 0.43668,5.25143 0.82153,7.77523 0.34673,2.28059 0.91167,4.34189 1.49097,6.34726 0.28751,0.78606 0.47623,1.72947 0.75283,2.53234 0.0546,0.15843 0.1016,0.35861 0.18299,0.43712 0.0366,0.0354 0.12821,-0.21201 0.0927,-0.17128 -0.89708,1.03073 -1.78649,2.09576 -2.67974,3.14364 0.0556,-0.27943 0.12173,-0.54922 0.16685,-0.8383 0.44228,-2.83373 0.64377,-5.87894 0.9736,-8.78525 0.41229,-3.45003 0.94952,-6.81518 1.61548,-10.05121 1.23996,-5.49947 2.90056,-6.5819 5.34226,-9.79379 0.47776,-0.57046 1.00038,-0.88333 1.50157,-1.31754 0.30985,-0.26847 0.59205,-0.63881 0.89966,-0.91216 0,0 -2.54376,4.57121 -2.54376,4.57121 v 0 c -0.7691,0.78092 -1.58314,1.30617 -2.3288,2.20786 4.4087,-5.87328 1.95816,-2.92376 1.18279,-1.30435 -0.48684,1.01682 -0.87311,2.22925 -1.1726,3.56665 -0.69264,3.19323 -1.24976,6.52174 -1.66857,9.9566 -0.38085,3.22158 -0.6495,6.50216 -1.00567,9.73801 -0.98176,1.35727 -1.93037,2.84763 -2.94526,4.0718 -0.16429,0.19817 -1.00221,-3.05019 -1.11989,-3.38216 -0.58839,-2.0633 -1.16697,-4.17 -1.52733,-6.50397 -0.39311,-2.56408 -0.66527,-5.22099 -0.83261,-7.91053 -0.21089,-3.09784 -0.29873,-6.23152 -0.40132,-9.35572 -0.065,-2.36312 -0.0977,-4.72783 -0.0354,-7.0943 0.0507,-1.41076 0.13452,-2.81465 0.36667,-4.13895 0.62409,-2.82971 0.0994,-0.68288 3.06036,-4.52837 0.29745,-0.38628 0.72759,-0.0607 1.02348,0.11952 0.60694,0.57837 1.10533,1.56179 1.63835,2.42306 0.87844,1.34542 1.74938,2.75668 2.71505,3.76361 -0.90438,1.18183 -1.84767,2.221 -2.71315,3.54549 -0.0612,0.0936 0.073,0.29587 0.12441,0.41627 0.0154,0.0361 -8.2e-4,-0.10407 -0.0106,-0.14931 -0.10066,-0.46727 -0.29272,-0.81093 -0.37851,-1.30084 -0.49168,-1.82604 -0.8925,-3.77521 -1.31987,-5.68064 -0.35954,-1.91955 -0.7903,-3.82225 -0.80259,-5.95726 -0.0301,-1.46341 0.0106,-2.99447 0.27292,-4.35153 1.55003,-2.12476 2.39179,-5.01681 3.98029,-3.74507 0.59632,0.65413 1.00404,1.80015 1.43841,2.90876 0.67903,1.82704 1.36435,3.64574 1.99018,5.57005 0,0 -2.78881,3.75137 -2.78881,3.75137 z"
       inkscape:connector-curvature="0" />
    <path
       style="fill:#f0f0ff;fill-opacity:1;stroke:none;stroke-width:0.32629836;stroke-opacity:1"
       id="path92"
       d="m 132.84179,127.68188 c 0.72761,-0.82435 1.4284,-1.76361 2.14671,-2.62716 0.13767,-0.16122 0.54656,-0.66202 0.413,-0.48369 -0.7857,1.04911 -3.15453,4.15042 -2.36999,3.09676 1.02082,-1.37101 2.0621,-2.6624 3.0789,-4.04884 0.81484,-1.11106 -1.64526,2.16184 -2.47291,3.22255 -0.15826,0.20281 0.30261,-0.45741 0.45355,-0.68738 0.39544,-0.62406 0.76139,-1.33758 1.14055,-2.01025 0.32804,-0.48585 0.60069,-0.95603 0.74352,-1.80328 0.0793,-0.87959 -0.0415,-1.74184 -0.17272,-2.56159 -0.47948,-2.53099 -1.15023,-4.8453 -1.78266,-7.18595 -0.83596,-3.08865 -1.55653,-6.0149 -1.98751,-9.52169 -0.31272,-3.284523 -0.29012,-6.674716 -0.30497,-10.01889 -0.007,-1.695553 -0.0143,-3.391106 -0.0198,-5.086715 0,0 2.8565,-3.311017 2.8565,-3.311017 v 0 c -0.0155,1.711321 -0.031,3.422772 -0.0317,5.13454 0.009,3.283335 -0.002,6.602395 0.28455,9.83446 0.39295,3.417302 1.09064,6.389382 1.90316,9.386402 0.66161,2.35439 1.3669,4.67378 1.91142,7.18244 0.16693,0.95799 0.2861,1.93567 0.27437,2.97775 -0.0897,0.97137 -0.2502,1.78659 -0.66625,2.23364 -0.38339,0.6796 -0.7609,1.36517 -1.14045,2.05679 -1.10722,1.78383 -2.3373,3.11899 -3.48547,4.7626 -0.78557,1.12455 3.21696,-4.21488 2.40937,-3.17448 -4.1122,5.2977 -1.9447,2.67593 -3.5287,4.58128 -0.7222,0.90672 -1.45103,1.78487 -2.17187,2.6966 0,0 2.51948,-4.64488 2.51948,-4.64488 z"
       inkscape:connector-curvature="0" />
  </g>
</svg>
