<?xml version="1.0" encoding="UTF-8" standalone="no"?>
<!-- Created with Inkscape (http://www.inkscape.org/) -->

<svg
   xmlns:dc="http://purl.org/dc/elements/1.1/"
   xmlns:cc="http://creativecommons.org/ns#"
   xmlns:rdf="http://www.w3.org/1999/02/22-rdf-syntax-ns#"
   xmlns:svg="http://www.w3.org/2000/svg"
   xmlns="http://www.w3.org/2000/svg"
   xmlns:sodipodi="http://sodipodi.sourceforge.net/DTD/sodipodi-0.dtd"
   xmlns:inkscape="http://www.inkscape.org/namespaces/inkscape"
   version="1.1"
   id="svg815"
   width="471.99582"
   height="183.02332"
   viewBox="0 0 471.99584 183.02331"
   sodipodi:docname="tagline.svg"
   inkscape:version="0.92.2 (5c3e80d, 2017-08-06)">
  <metadata
     id="metadata821">
    <rdf:RDF>
      <cc:Work
         rdf:about="">
        <dc:format>image/svg+xml</dc:format>
        <dc:type
           rdf:resource="http://purl.org/dc/dcmitype/StillImage" />
        <dc:title></dc:title>
      </cc:Work>
    </rdf:RDF>
  </metadata>
  <defs
     id="defs819" />
  <sodipodi:namedview
     pagecolor="#ffffff"
     bordercolor="#666666"
     borderopacity="1"
     objecttolerance="10"
     gridtolerance="10"
     guidetolerance="10"
     inkscape:pageopacity="0"
     inkscape:pageshadow="2"
     inkscape:window-width="1600"
     inkscape:window-height="877"
     id="namedview817"
     showgrid="false"
     fit-margin-top="0"
     fit-margin-left="0"
     fit-margin-right="0"
     fit-margin-bottom="0"
     inkscape:zoom="0.79135617"
     inkscape:cx="216.03096"
     inkscape:cy="-8.4175356"
     inkscape:window-x="-8"
     inkscape:window-y="-8"
     inkscape:window-maximized="1"
     inkscape:current-layer="svg815" />
  <path
     style="fill:#bdc2ff;fill-opacity:1;stroke:none;stroke-width:0.67080218;stroke-opacity:1"
     id="path4962"
     d="m 41.154859,18.676416 c -1.343001,5.844413 -1.91355,11.968781 -2.354334,18.092922 -0.661526,9.369686 -0.327888,18.810469 0.701592,28.089612 0.239112,2.155187 0.545898,4.291804 0.818847,6.437708 1.563052,11.471711 4.197195,22.486838 7.229378,33.227292 1.335716,4.47386 0.695619,2.35055 1.917411,6.37194 0,0 -6.063501,5.17968 -6.063501,5.17968 v 0 C 42.277613,111.96431 42.873697,114.13308 41.614955,109.5699 38.737354,98.648144 36.127144,87.53923 34.510486,76.00878 34.226692,73.853628 33.910145,71.707822 33.659114,69.543323 32.5821,60.256813 32.131282,50.799677 32.674464,41.391138 c 0.367126,-6.083219 0.867972,-12.147773 1.974757,-18.040027 0,0 6.505638,-4.674695 6.505638,-4.674695 z"
     inkscape:connector-curvature="0" />
  <path
     style="fill:#bdc2ff;fill-opacity:1;stroke:none;stroke-width:0.67080218;stroke-opacity:1"
     id="path4964"
     d="m 41.337846,21.123698 c -4.152557,-0.280876 -8.296904,0.02662 -12.436982,0.502367 -5.091192,0.568089 -10.090542,2.210687 -14.822851,5.106575 -4.665102,3.716789 1.820735,-1.790614 2.800362,-2.485459 0.565138,-0.400848 -1.032665,1.066587 -1.517249,1.662862 -1.687538,2.07649 -2.97316,4.569126 -4.282139,7.17281 -2.3128533,5.056739 -4.3443624,10.747951 -4.8266212,16.96639 -0.0906,1.16825 -0.056567,2.35107 -0.084856,3.526606 0.097906,1.118482 0.1237183,2.257042 0.2937248,3.355444 0.7825659,5.056195 3.1435696,9.159344 5.7418614,12.350424 0.819255,1.006162 1.715837,1.857871 2.573755,2.786807 3.736844,3.392182 7.850969,5.645352 12.099756,7.023032 2.642838,0.856945 3.761268,0.974959 6.439827,1.475212 5.528768,0.897523 11.105092,0.924813 16.603764,-0.423687 1.130294,-0.277198 2.247854,-0.663048 3.371777,-0.99457 3.342416,-1.187653 6.555346,-3.0238 9.594771,-5.441751 0.988734,-0.786567 3.719275,-1.379333 2.902801,-2.53489 -0.83426,-1.180736 -2.122087,3.270547 -3.067467,2.301837 -0.85667,-0.877806 1.595544,-1.995085 2.393317,-2.992629 2.609322,-3.609476 4.81241,-7.869714 6.237138,-12.797428 0.733424,-2.536706 0.847963,-3.560018 1.313023,-6.182223 0.506193,-4.073925 0.681878,-8.479916 -0.687735,-12.243694 C 71.73541,38.591577 71.412493,38.000668 71.129827,37.372137 68.248393,32.611627 64.007517,31.32954 60.022218,29.988833 54.10888,28.446339 48.072264,27.67424 42.070416,28.11965 c -1.426806,0.105882 -2.847704,0.349934 -4.271554,0.524901 -4.30806,0.689702 -8.564953,2.104997 -12.638436,4.360731 -1.276372,0.706801 -2.50681,1.591785 -3.760212,2.387677 0,0 5.208884,-6.22794 5.208884,-6.22794 v 0 c 1.257686,-0.763016 2.49407,-1.612552 3.773061,-2.289048 4.110678,-2.174258 8.392997,-3.512533 12.719497,-4.176317 1.436741,-0.16359 2.870941,-0.391386 4.31023,-0.49077 6.094414,-0.420825 12.22329,0.289681 18.229727,1.858977 4.197697,1.381145 8.59028,2.776007 11.558393,7.891504 0.307193,0.684318 0.656278,1.329381 0.921577,2.052957 1.457867,3.976203 1.316982,8.6094 0.819577,12.940765 -0.452609,2.653269 -0.589258,3.831546 -1.300834,6.405556 -1.403193,5.075787 -3.601377,9.508315 -6.233484,13.263513 -4.734682,6.145034 -2.048513,2.987051 -10.866248,10.989568 -3.920724,3.558244 -8.149769,6.221417 -12.620344,7.69747 -1.134453,0.316538 -2.262971,0.686856 -3.40337,0.949624 -5.542754,1.277147 -11.158546,1.17382 -16.72034,0.235335 C 25.045402,85.944196 24.025771,85.835925 21.314208,84.911632 17.004074,83.442432 12.839393,81.09331 9.062815,77.584984 8.1787439,76.630837 7.2567145,75.752941 6.4105908,74.722546 3.6710115,71.386331 1.1967972,67.126987 0.33684468,61.830605 0.15004218,60.68009 0.11501296,59.484757 0.00409439,58.311834 0.01803203,57.08419 -0.03428856,55.850682 0.04585287,54.628901 0.46061202,48.307551 2.4449564,42.439582 4.7294556,37.243543 5.8423924,34.892169 6.1838101,34.008547 7.4579391,31.922 10.704261,26.605729 15.310205,23.253566 19.554467,20.210347 c 4.768851,-2.684105 9.762757,-4.200762 14.838791,-4.74057 4.249821,-0.505583 8.49987,-0.771433 12.763264,-0.76373 0,0 -5.818687,6.417651 -5.818687,6.417651 z"
     inkscape:connector-curvature="0" />
  <path
     style="fill:#bdc2ff;fill-opacity:1;stroke:none;stroke-width:0.67080218;stroke-opacity:1"
     id="path4966"
     d="m 53.855399,75.413143 c -0.535809,3.883111 -0.834963,7.898323 -0.7306,11.871022 0.03692,1.405176 0.146939,2.803723 0.220406,4.205585 0.81135,10.41726 2.458399,20.66969 4.884904,30.49334 0.612259,2.47871 1.318195,4.90174 1.977293,7.35262 2.780664,9.71075 6.313066,18.9182 10.620832,27.25624 2.24746,4.35015 3.36564,5.94549 5.827376,9.85465 2.66007,4.0833 5.571092,7.73109 8.720223,10.89944 0,0 -5.864918,5.67727 -5.864918,5.67727 v 0 c -3.064538,-3.37743 -5.902057,-7.17738 -8.509409,-11.35512 -2.487356,-4.1104 -3.454846,-5.5354 -5.745759,-10.07537 -4.273918,-8.46979 -7.834816,-17.72052 -10.66523,-27.48259 -0.677619,-2.45686 -1.400036,-4.88634 -2.032865,-7.37059 -2.499444,-9.81185 -4.292723,-20.03368 -5.276595,-30.447116 -0.105436,-1.410326 -0.246326,-2.81558 -0.316314,-4.230976 -0.196248,-3.969096 0.04029,-7.963351 0.397125,-11.894276 0,0 6.493531,-4.754129 6.493531,-4.754129 z"
     inkscape:connector-curvature="0" />
  <path
     style="fill:#bdc2ff;fill-opacity:1;stroke:none;stroke-width:0.67080218;stroke-opacity:1"
     id="path4968"
     d="m 54.675323,80.562138 c 1.873705,0.395734 3.773438,0.65604 5.587715,1.498749 1.215259,0.705655 2.209041,1.782675 2.953969,3.39719 0.579616,1.477458 1.205373,2.924782 1.557422,4.568132 0.41953,2.043228 -0.18121,3.706068 -1.13412,5.103415 -3.389744,4.198832 -7.350772,6.657596 -11.381804,8.853316 -0.876276,0.4112 -1.768714,0.71211 -2.648713,1.10275 0,0 5.6766,-6.627516 5.6766,-6.627516 v 0 c 0.868271,-0.352203 1.743626,-0.673438 2.589836,-1.138868 0.97998,-0.551184 1.965268,-1.095989 2.929317,-1.709499 0.296323,-0.188572 1.154025,-0.851436 0.880445,-0.595653 -1.548896,1.448123 -7.662751,6.861446 -4.707487,4.190803 0.876661,-0.919223 1.78386,-2.136813 1.473111,-3.91568 -0.302785,-1.541663 -0.893958,-2.900229 -1.43739,-4.268676 -0.674762,-1.378581 -1.589909,-2.26443 -2.659373,-2.819672 -1.813538,-0.73886 -3.692577,-1.05473 -5.559753,-1.302983 0,0 5.880225,-6.335808 5.880225,-6.335808 z"
     inkscape:connector-curvature="0" />
  <path
     style="fill:#bdc2ff;fill-opacity:1;stroke:none;stroke-width:0.67080218;stroke-opacity:1"
     id="path4970"
     d="m 71.334915,83.515568 c -0.582893,2.165093 -0.939772,4.440653 -1.172274,6.746314 -0.146901,2.00514 0.259746,3.769127 1.148836,5.233401 0.898935,1.334554 2.026212,2.202822 3.20715,2.803299 1.159415,0.372251 2.397149,0.8766 3.534258,0.182591 2.13326,-2.624374 -0.129951,0.206835 -5.50081,4.648377 -0.121182,0.10021 0.204191,-0.28942 0.276193,-0.46812 0.325635,-0.80819 0.349716,-1.85142 0.419758,-2.758631 0.134895,-2.384283 0.147341,-4.772629 -0.166419,-7.12299 -0.199548,-1.427307 -0.559716,-2.762648 -1.31304,-3.699955 -0.905745,-1.225358 -2.0091,-1.854089 -3.159184,-2.349861 -0.689739,-0.185126 -1.393236,-0.517285 -2.102967,-0.367972 -0.168918,0.03554 -0.338059,0.103601 -0.491002,0.218088 -0.130459,0.09766 -0.47136,0.51445 -0.344239,0.40713 1.972318,-1.665096 3.922712,-3.389352 5.88407,-5.084031 -0.387107,0.492417 -0.543019,1.163872 -0.715949,1.855392 0,0 -6.520775,4.666731 -6.520775,4.666731 v 0 c 0.139677,-0.807262 0.282652,-1.612399 0.546509,-2.352392 5.188521,-4.744186 5.235054,-7.222018 9.6722,-5.48012 1.226066,0.612267 2.407124,1.363532 3.371178,2.707381 0.807419,1.184085 1.285111,2.650608 1.504601,4.327259 0.353308,2.443836 0.344592,4.927923 0.255805,7.418537 -0.266797,6.320944 -1.508113,7.572214 -7.349411,10.086024 -1.269316,0.22141 -2.546445,-0.17666 -3.760386,-0.7347 -1.257693,-0.75907 -2.467475,-1.74974 -3.410574,-3.2541 -0.959334,-1.738682 -1.510699,-3.761722 -1.425178,-6.068862 0.194256,-2.365833 0.569565,-4.678328 1.069044,-6.939102 0,0 6.542606,-4.619688 6.542606,-4.619688 z"
     inkscape:connector-curvature="0" />
  <path
     style="fill:#bdc2ff;fill-opacity:1;stroke:none;stroke-width:0.67080218;stroke-opacity:1"
     id="path4972"
     d="m 85.076481,79.64462 c 0.08114,3.260575 0.199557,6.52611 0.515957,9.755277 0.264136,3.049319 0.804572,5.994123 1.486,8.880308 0.316823,1.407436 0.14893,0.748495 0.493892,1.982485 0,0 -6.273852,5.33221 -6.273852,5.33221 v 0 c -0.348191,-1.31435 -0.184799,-0.62969 -0.484606,-2.05698 -0.673373,-2.96625 -1.228271,-5.975826 -1.497185,-9.097949 -0.344956,-3.257267 -0.424363,-6.543968 -0.674076,-9.818802 0,0 6.43387,-4.976549 6.43387,-4.976549 z"
     inkscape:connector-curvature="0" />
  <path
     style="fill:#bdc2ff;fill-opacity:1;stroke:none;stroke-width:0.67080218;stroke-opacity:1"
     id="path4974"
     d="m 82.327119,90.759171 c 1.762383,0.04674 3.525187,0.041 5.287749,0.03021 1.529323,-0.06901 2.970559,-0.565843 4.410324,-1.297162 1.08735,-0.687895 2.166616,-1.436431 3.29516,-1.956321 0,0 -5.692443,6.718559 -5.692443,6.718559 v 0 c -1.098408,0.621946 -2.176302,1.326831 -3.28275,1.915954 -1.470454,0.667732 -2.981058,0.971297 -4.517209,1.001584 -1.780871,-0.01102 -3.561955,-0.01564 -5.342651,0.03021 0,0 5.84182,-6.443172 5.84182,-6.443172 z"
     inkscape:connector-curvature="0" />
  <path
     style="fill:#bdc2ff;fill-opacity:1;stroke:none;stroke-width:0.67080218;stroke-opacity:1"
     id="path4976"
     d="m 98.65951,78.228732 c -0.25436,2.700262 -0.347474,5.429556 -0.414178,8.153241 -0.126615,2.148233 0.0305,4.243802 0.341084,6.335201 0.201248,1.491223 0.554057,2.925722 0.979533,4.299761 0.210917,0.786611 0.102054,0.399206 0.326162,1.162485 0,0 -6.293289,5.39434 -6.293289,5.39434 v 0 c -0.24136,-0.78742 -0.13399,-0.40211 -0.325871,-1.15351 -0.439459,-1.45172 -0.80657,-2.964122 -1.013873,-4.534925 -0.329949,-2.179769 -0.564691,-4.359663 -0.406102,-6.607571 0.07675,-2.735143 0.207639,-5.46393 0.332935,-8.194715 0,0 6.473599,-4.854307 6.473599,-4.854307 z"
     inkscape:connector-curvature="0" />
  <path
     style="fill:#bdc2ff;fill-opacity:1;stroke:none;stroke-width:0.67080218;stroke-opacity:1"
     id="path4978"
     d="m 105.01778,80.474745 c -0.035,2.789603 -0.11772,5.583871 0.1424,8.352479 0.23267,2.283233 0.76266,4.455784 1.48972,6.476447 0,0 -6.23154,5.428679 -6.23154,5.428679 v 0 c -0.759197,-2.134568 -1.323469,-4.434058 -1.574935,-6.837423 -0.291367,-2.804359 -0.209979,-5.619275 -0.25101,-8.450206 0,0 6.425365,-4.969976 6.425365,-4.969976 z"
     inkscape:connector-curvature="0" />
  <path
     style="fill:#bdc2ff;fill-opacity:1;stroke:none;stroke-width:0.67080218;stroke-opacity:1"
     id="path4980"
     d="m 104.04611,82.795312 c 2.25393,-1.86845 2.57246,-2.142283 -4.671596,4.112261 -0.278176,0.240187 0.545582,-0.508127 0.818246,-0.762497 0.71372,-0.665849 1.4132,-1.348805 2.1052,-2.065343 2.67543,-2.670231 1.52102,-1.545075 7.35669,-6.489747 0.40039,-0.339251 0.73284,-0.347611 1.15525,-0.567419 0.30329,-0.157826 0.59181,-0.375639 0.89301,-0.542434 0.97492,-0.43001 1.6579,-0.691456 2.43539,0.466626 0.57884,1.465348 0.57757,3.198224 0.60984,4.854766 0.0201,1.871003 0.009,3.742598 -8.4e-4,5.613714 0.26275,6.225601 1.92899,1.04394 -5.90829,7.368277 0.64724,-0.80566 0.90118,-2.744949 1.16626,-3.955764 0.26799,-1.321186 0.78968,-2.436553 1.36898,-3.482244 0.28252,-0.379403 0.4866,-1.069524 0.81481,-1.370716 2.16285,-1.984849 4.42633,-3.717655 6.54887,-5.800369 1.88007,-1.84479 -7.77161,6.752176 -5.8206,5.085759 2.19649,-1.876083 4.37138,-3.809868 6.55708,-5.7148 0.85583,-0.588333 1.72235,-0.987229 2.65409,-1.187168 1.07752,-0.194084 1.80157,0.123514 2.37354,1.554722 0.45441,1.614291 0.44593,3.392042 0.46321,5.116438 0.0661,2.328069 -0.0593,4.639603 -0.21983,6.9517 -0.1404,1.972634 -0.21268,3.953564 -0.24933,5.93621 -0.0122,1.000851 -0.0249,0.530544 0.0259,1.41157 0,0 -6.39702,5.090266 -6.39702,5.090266 v 0 c -0.0939,-1.02246 -0.0727,-0.50166 -0.0594,-1.56283 0.0384,-2.01735 0.11833,-4.03212 0.26387,-6.038832 0.15329,-2.269952 0.32231,-4.528631 0.2345,-6.816253 -0.0182,-1.52515 0.0145,-3.106822 -0.31391,-4.56775 -0.39975,-0.931053 -1.26404,-0.623929 -1.8829,-0.471622 -0.88259,0.312671 -1.72474,0.8138 -2.5249,1.46168 15.48819,-13.615449 -0.66764,0.588471 -0.72954,0.63612 -1.99595,1.53667 3.8604,-3.438712 5.78767,-5.165616 0.11389,-0.10204 -0.24628,0.16148 -0.34737,0.290918 -0.19611,0.251122 -0.26759,0.692199 -0.53093,0.845945 -0.51383,1.034637 -1.19607,1.923994 -1.47377,3.18591 -0.41665,1.436504 -0.65999,2.997989 -0.96299,4.497321 -2.22348,1.835156 -6.30438,8.095658 -7.01527,4.408347 -0.17,-0.881769 -0.11675,-1.859868 -0.23141,-2.755384 1.7e-4,-1.859613 0.0147,-3.719243 0.005,-5.578846 -0.0191,-1.323812 0.0268,-2.778457 -0.345,-4.003825 -0.60414,-0.482784 -1.38972,0.202854 -1.98195,0.451844 -0.46945,0.270718 -0.95628,0.486193 -1.41673,0.791228 -0.18454,0.122242 -0.71642,0.556833 -0.54322,0.400956 13.4815,-12.13361 6.49279,-5.766853 4.91338,-4.326665 -3.37157,3.535082 -6.95899,6.546413 -10.535678,9.587656 0,0 5.613258,-6.89411 5.613258,-6.89411 z"
     inkscape:connector-curvature="0" />
  <path
     style="fill:#bdc2ff;fill-opacity:1;stroke:none;stroke-width:0.67080218;stroke-opacity:1"
     id="path4982"
     d="m 132.46474,89.149511 c 1.69996,-0.290726 3.37534,-0.818359 5.0806,-1.078548 1.53015,-0.375658 3.0657,-0.825667 4.55117,-1.505889 2.45017,-1.849808 1.43877,-1.104766 -5.1825,4.508398 -0.13946,0.118233 0.26894,-0.262021 0.39921,-0.402309 0.39424,-0.424512 0.60195,-0.810396 0.82507,-1.45566 0.37607,-1.601723 0.40576,-3.221172 0.0147,-4.806446 -0.48547,-1.414435 -1.26575,-2.141332 -2.25269,-2.521039 -1.14944,-0.264083 -2.31655,-0.239924 -3.47592,-0.237345 -1.21135,-0.04553 -2.39814,-0.0087 -3.59131,0.302381 0.60592,-0.801195 -2.06739,1.699944 -1.29354,1.025228 9.86473,-8.600918 7.10305,-6.533064 5.06521,-4.233805 -0.70835,0.886962 -1.32673,1.920008 -1.99981,2.863606 -0.70393,0.82794 -0.99704,1.939272 -1.15791,3.224793 -0.0906,1.455506 0.20124,2.793499 0.56962,4.108475 0.47394,1.774228 1.26495,3.286927 2.11074,4.684928 0.99028,1.718599 2.19626,2.833949 3.63303,3.431138 1.33823,0.42901 2.71614,0.394702 4.07712,0.403582 1.15851,0.06353 2.27964,-0.452689 3.38831,-0.893175 1.20982,-0.25953 2.37635,-0.801543 3.58062,-1.10851 0.67786,-0.129804 0.36107,-0.06246 0.95075,-0.197214 0,0 -5.78959,6.57638 -5.78959,6.57638 v 0 c -0.56522,0.11344 -0.26099,0.0453 -0.91201,0.21146 -1.18601,0.36619 -2.36436,0.79138 -3.54899,1.1658 -1.14092,0.43703 -2.29971,0.74792 -3.48268,0.64494 -1.40814,-0.0299 -2.84042,-0.0505 -4.2013,-0.66553 -1.49427,-0.80273 -2.76952,-2.11195 -3.83016,-3.917311 -0.89988,-1.493148 -1.73514,-3.100802 -2.26262,-4.976919 -0.42485,-1.496779 -0.75861,-2.980518 -0.76575,-4.63644 0.10652,-1.42082 0.27374,-2.841399 0.94938,-3.917212 0.70104,-0.913872 1.31628,-1.93888 2.00897,-2.864001 0.32764,-0.53419 0.30225,-0.573911 0.7002,-0.931362 1.74153,-1.56428 5.14553,-5.67035 7.97625,-6.554343 1.21159,-0.222904 2.4306,-0.157639 3.64913,-0.163741 1.21106,0.01977 2.44216,7.15e-4 3.61913,0.494482 1.12186,0.652485 2.01709,1.702405 2.57526,3.358009 0.4872,1.821301 0.53295,3.602035 0.24533,5.524534 -0.2014,1.043416 -0.40258,1.911176 -1.05566,2.492921 -6.5372,5.82292 -4.2349,4.606557 -7.23237,6.101781 -1.51827,0.558368 -3.04358,1.09326 -4.59927,1.349794 -1.71395,0.315238 -3.40709,0.825418 -5.12216,1.12597 0,0 5.78642,-6.531801 5.78642,-6.531801 z"
     inkscape:connector-curvature="0" />
  <path
     style="fill:#bdc2ff;fill-opacity:1;stroke:none;stroke-width:0.67080218;stroke-opacity:1"
     id="path4984"
     d="m 150.3017,81.0613 c 0.0844,2.796925 0.70686,5.443821 1.18063,8.122281 0.42505,2.323132 1.07547,4.529019 1.60801,6.795986 0.28783,1.126481 0.12647,0.602835 0.47299,1.578709 0,0 -6.25285,5.432624 -6.25285,5.432624 v 0 c -0.37945,-1.11064 -0.2074,-0.5322 -0.5121,-1.73812 -0.50667,-2.313256 -1.17133,-4.54458 -1.59056,-6.90224 -0.4639,-2.718727 -1.10179,-5.383682 -1.2982,-8.192043 0,0 6.39208,-5.097197 6.39208,-5.097197 z"
     inkscape:connector-curvature="0" />
  <path
     style="fill:#bdc2ff;fill-opacity:1;stroke:none;stroke-width:0.67080218;stroke-opacity:1"
     id="path4986"
     d="m 147.05906,89.888015 c 2.05486,-0.574519 4.14008,-0.80043 6.20736,-1.224996 1.79429,-0.288014 3.56763,-0.767338 5.3519,-1.157774 1.01128,-0.127003 2.01026,-0.4319 2.97956,-0.879488 0,0 -5.70032,6.634111 -5.70032,6.634111 v 0 c -0.99499,0.338482 -1.99902,0.596889 -3.01288,0.769718 -1.77033,0.420315 -3.54444,0.774084 -5.32389,1.095055 -2.1011,0.378637 -4.20444,0.723022 -6.28816,1.295173 0,0 5.78643,-6.531799 5.78643,-6.531799 z"
     inkscape:connector-curvature="0" />
  <path
     style="fill:#bdc2ff;fill-opacity:1;stroke:none;stroke-width:0.67080218;stroke-opacity:1"
     id="path4988"
     d="m 163.88575,81.121626 c -0.0375,2.630321 -0.0402,5.261861 -0.0319,7.892731 0.0219,2.620884 -0.0449,5.244896 0.0503,7.862775 0.0882,1.468189 0.20718,2.931376 0.30579,4.397958 0,0 -6.37738,5.04633 -6.37738,5.04633 v 0 c -0.0817,-1.48399 -0.18366,-2.96478 -0.28289,-4.44629 -0.1395,-2.638092 -0.0379,-5.288831 -0.0661,-7.933526 0.008,-2.614425 0.005,-5.229566 -0.0319,-7.843431 0,0 6.43386,-4.976547 6.43386,-4.976547 z"
     inkscape:connector-curvature="0" />
  <path
     style="fill:#bdc2ff;fill-opacity:1;stroke:none;stroke-width:0.67080218;stroke-opacity:1"
     id="path5006"
     d="m 175.23428,86.275265 c -0.89003,-0.683775 -1.83437,-1.488722 -2.83958,-1.709015 -0.37359,-0.0819 -1.22742,0.04307 -1.58819,0.08224 -2.275,1.203523 -6.38439,4.534367 3.79401,-3.560136 0.30115,-0.239493 -0.55272,0.603953 -0.80808,0.944667 -0.58396,0.779131 -0.85191,1.33732 -1.34527,2.236381 -1.24758,2.295495 -1.85074,5.071228 -2.05149,7.99133 -0.005,2.97238 0.77954,4.941294 2.38018,6.567124 1.8255,1.349534 3.89242,1.573654 5.89262,1.475144 0.99552,-0.19055 1.21496,-0.14993 2.17387,-0.670828 0.36627,-0.198954 1.40355,-1.011392 1.06971,-0.708224 -9.5774,8.697992 -4.80051,4.246292 -2.82655,1.872132 2.85387,-3.512768 4.20137,-8.518861 5.45118,-13.594766 1.77319,-7.201386 2.24088,-14.852229 2.55815,-22.459791 0.10867,-5.477861 0.0543,-11.0087 -0.52808,-16.431476 -0.35825,-3.336046 -0.65243,-4.708871 -1.22002,-7.975181 -1.41663,-7.023344 -3.88093,-13.374978 -7.38796,-18.469315 -0.80528,-1.169751 -1.69333,-2.200686 -2.54,-3.30103 -3.96712,-4.459935 -8.44585,-7.675691 -13.21475,-9.5972306 -3.17324,-1.2786025 -4.71126,-1.4951935 -7.9587,-2.2444102 -5.02995,-0.9982724 -10.14781,-1.2856609 -15.13535,0.3604175 -3.09217,1.020538 -3.74937,1.6224982 -6.67656,3.3780043 -8.44915,6.919697 -0.32114,0.107684 -0.31919,0.663906 0.006,1.872943 -1.84889,2.480771 -2.77334,3.721148 0,0 -6.19341,3.838345 -6.19341,3.838345 v 0 c 0.91058,-1.274619 1.71516,-2.749671 2.73174,-3.823856 5.96373,-6.3016279 6.93764,-6.8854546 11.84217,-10.6934923 2.96435,-1.674518 3.63409,-2.2595351 6.75366,-3.19267143 5.02115,-1.50195434 10.15035,-1.06943355 15.18973,-0.0377712 3.26954,0.78592963 4.84564,1.02633193 8.04162,2.34403593 4.84926,1.9993465 9.39747,5.3203146 13.43368,9.867131 0.86883,1.12475 1.77875,2.180234 2.6065,3.374252 3.60577,5.201292 6.15027,11.658803 7.62129,18.851827 0.55743,3.156057 0.91238,4.86543 1.27046,8.092465 0.60777,5.477141 0.64832,11.070843 0.58099,16.607371 -0.28427,7.663165 -0.68774,15.385702 -2.39572,22.676942 -1.19928,5.137651 -2.40198,10.321369 -5.17807,14.030697 -3.61176,4.715829 -7.87984,9.393419 -12.7358,9.883059 -2.12274,-0.0529 -4.29406,-0.34943 -6.16249,-2.01886 -1.73898,-1.99401 -2.63972,-4.16666 -2.74346,-7.536725 0.11174,-3.061918 0.67243,-6.088372 1.88351,-8.585259 0.32705,-0.645559 0.92355,-1.85929 1.29386,-2.440778 2.48406,-3.900899 5.88453,-6.904956 9.40357,-7.850465 1.77615,0.01469 3.15491,0.779657 4.70326,2.06879 0,0 -6.0537,5.973817 -6.0537,5.973817 z"
     inkscape:connector-curvature="0" />
  <path
     style="fill:#bdc2ff;fill-opacity:1;stroke:none;stroke-width:0.67080218;stroke-opacity:1"
     id="path5008"
     d="m 203.08209,89.290674 c 2.6869,-0.202869 5.35641,-0.711555 8.03904,-1.013301 1.4395,-0.145018 2.88108,-0.230923 4.32243,-0.319069 0,0 -5.71415,6.35185 -5.71415,6.35185 v 0 c -1.42642,0.07395 -2.85298,0.153022 -4.27631,0.320952 -2.73439,0.335814 -5.45722,0.864636 -8.19741,1.085723 0,0 5.8264,-6.426155 5.8264,-6.426155 z"
     inkscape:connector-curvature="0" />
  <path
     style="fill:#bdc2ff;fill-opacity:1;stroke:none;stroke-width:0.67080218;stroke-opacity:1"
     id="path5030"
     d="m 227.42992,102.42252 c -0.50438,-3.96378 -1.34074,-7.805453 -2.32612,-11.54734 -0.41981,-2.523779 -1.68737,-4.717782 -1.84237,-7.343635 2.19866,-1.708706 4.31531,-3.686373 6.59602,-5.126108 0.19651,-0.124064 0.308,0.446038 0.46038,0.671612 0.82156,1.216198 1.60119,2.489073 2.43772,3.682411 1.3335,1.998759 2.79167,3.737627 4.4257,5.128261 1.33292,1.011928 2.78704,1.286963 4.25309,1.408731 -7.49176,5.735806 -6.0232,5.689861 -4.04705,2.186343 1.25216,-2.219961 2.20596,-4.800143 3.18694,-7.299395 1.82393,-4.386395 2.98635,-4.248346 7.39161,-7.780017 0.13101,-0.10504 0.2883,0.155004 0.39377,0.312954 0.3253,0.487098 0.39926,1.066904 0.53911,1.692212 0.41774,3.895583 0.54052,7.855376 0.82516,11.78213 0.21107,2.840062 0.54829,5.641108 0.96801,8.424588 0,0 -6.26904,5.105483 -6.26904,5.105483 v 0 c -0.37693,-2.84594 -0.68533,-5.704573 -0.91413,-8.587707 -0.29344,-3.814522 -0.51223,-7.654287 -0.92306,-11.439637 -0.0464,-0.207881 -0.0628,-0.791857 -0.15071,-0.617498 -0.0355,0.0705 -0.15332,0.260253 -0.10285,0.215533 9.85596,-8.733572 6.40438,-7.049126 4.74058,-3.470081 -1.0468,2.530849 -2.0218,5.126134 -3.20832,7.519197 -0.33008,0.665725 -0.57845,1.483116 -1.0364,1.942466 -2.32673,2.333894 -4.82767,4.240581 -7.24148,6.360862 -1.53708,-0.22638 -3.04102,-0.681604 -4.40432,-1.84696 -1.64288,-1.506056 -3.1358,-3.296178 -4.50285,-5.345547 -0.6639,-0.947463 -1.29619,-1.943496 -1.96508,-2.882435 -0.16436,-0.230708 -0.32582,-0.467763 -0.50304,-0.675377 -0.11656,-0.136553 -0.49772,-0.229459 -0.37529,-0.353615 1.9555,-1.983136 4.05356,-3.621378 6.08035,-5.432066 -0.0852,-0.0467 -0.20612,-0.255281 -0.25553,-0.140074 -0.0704,0.1639 0.22997,1.464775 0.28442,1.684556 0.41628,1.680369 0.96474,3.283953 1.32282,4.999538 0.98766,3.78585 1.81203,7.658986 2.51236,11.590073 0,0 -6.3504,5.180552 -6.3504,5.180552 z"
     inkscape:connector-curvature="0" />
  <path
     style="fill:#bdc2ff;fill-opacity:1;stroke:none;stroke-width:0.67080218;stroke-opacity:1"
     id="path5034"
     d="m 255.52412,85.907111 c 1.19671,2.443471 2.68219,4.491508 4.14366,6.556472 1.553,1.804937 3.17862,3.417293 5.03174,4.39427 0.75037,0.244483 1.5804,0.728599 2.35854,0.432871 0.14808,-0.05628 0.55464,-0.384797 0.42176,-0.270768 -1.94453,1.668619 -3.90609,3.291084 -5.85913,4.936634 1.0694,-1.30861 1.18731,-3.483112 1.32267,-5.419335 0.1043,-1.915479 0.0999,-3.838829 0.0944,-5.759176 -0.0365,-1.669324 -0.3709,-2.220333 -1.22956,-3.159554 -1.41374,-1.323804 -3.06544,-1.775896 -4.68951,-2.074988 -0.90132,-0.04264 -1.83885,-0.367194 -2.73475,-0.06033 -0.38571,0.1321 -0.75415,0.361773 -1.13443,0.526204 -1.49538,0.586993 -3.00709,1.183935 -4.46563,1.958915 -0.19,0.156372 -0.38,0.312753 -0.57,0.469125 1.90465,-1.639523 3.79681,-3.312926 5.71394,-4.918579 0.13325,-0.111606 -0.24618,0.2737 -0.35704,0.43199 -0.26576,0.379469 -0.28893,0.603565 -0.25759,1.125058 0.15811,0.536113 0.0573,0.266155 0.31587,0.797937 0,0 -6.22352,5.585205 -6.22352,5.585205 v 0 c -0.36775,-0.782 -0.20845,-0.373841 -0.48041,-1.222247 -0.0597,-0.377359 -0.18034,-1.008608 -0.15413,-1.400191 0.0229,-0.341593 0.26015,-1.132462 0.45074,-1.31215 5.78102,-5.450186 4.31951,-4.549825 7.23183,-6.227694 1.49783,-0.665773 2.98692,-1.380211 4.50478,-1.935452 1.33231,-0.503077 2.65988,-0.406361 4.01332,-0.08508 1.71818,0.41749 3.44238,1.035716 4.9196,2.497636 0.99137,1.154408 1.48108,2.090345 1.56851,4.034483 -5.5e-4,1.96108 -0.007,3.923847 -0.0996,5.880957 -0.11912,2.158716 -0.22592,4.363913 -1.02309,6.234039 -5.1659,4.498827 -5.34358,7.187987 -9.5861,5.006487 -1.87224,-1.17381 -3.54982,-2.87936 -5.13221,-4.791123 -1.50808,-2.114337 -3.0007,-4.252112 -4.30791,-6.663651 0,0 6.21335,-5.567952 6.21335,-5.567952 z"
     inkscape:connector-curvature="0" />
  <path
     style="fill:#bdc2ff;fill-opacity:1;stroke:none;stroke-width:0.67080218;stroke-opacity:1"
     id="path5036"
     d="m 288.41961,74.566716 c -0.0863,3.498117 -0.0735,6.994066 0.0765,10.486652 0.22933,2.827435 0.41873,5.672255 0.86741,8.442492 0,0 -6.32953,5.179797 -6.32953,5.179797 v 0 c -0.42605,-2.853413 -0.5811,-5.772604 -0.83926,-8.669063 -0.1515,-3.489125 -0.16379,-6.974756 -0.2005,-10.469904 0,0 6.42537,-4.969974 6.42537,-4.969974 z"
     inkscape:connector-curvature="0" />
  <path
     style="fill:#bdc2ff;fill-opacity:1;stroke:none;stroke-width:0.67080218;stroke-opacity:1"
     id="path5038"
     d="m 280.7932,83.166524 c -1.94748,-0.06165 -3.8956,-0.04215 -5.84334,-0.02587 -0.54283,0.09019 -0.8889,0.07611 -1.3867,0.408701 -0.16308,0.108958 -0.60768,0.564769 -0.45204,0.433092 10.12489,-8.566036 6.39799,-7.328517 5.31802,-3.804264 -0.3255,1.785507 -0.30792,3.685521 -0.22822,5.5209 0.1157,1.784003 0.37106,3.645647 1.15663,5.037445 0.76329,1.188028 1.8846,1.315389 2.91574,1.446196 1.24337,0.05885 2.23677,0.500823 3.25637,-0.784058 -1.94468,1.693712 -3.88936,3.387412 -5.83404,5.081124 0.0667,-0.146639 0.95708,-1.250848 0.72301,-1.253853 -0.9939,0.193601 -1.86694,0.446973 -2.7413,1.259577 9.98124,-8.787522 6.05133,-5.677271 4.09527,-3.192557 -0.86105,1.093782 -1.66486,2.260056 -2.46496,3.454658 -2.26467,3.291845 -4.19774,7.030035 -6.11876,10.775525 -2.05537,4.35026 -3.95388,8.87962 -5.68636,13.54242 -1.20787,2.98823 -1.92119,6.30995 -2.80081,9.52228 -0.22029,0.81228 -0.56173,1.46988 -0.96021,2.08834 0,0 -6.73365,3.9961 -6.73365,3.9961 v 0 c 0.54062,-0.31603 0.88578,-0.77567 1.17748,-1.56484 1.03572,-3.17301 1.61438,-6.67452 2.89182,-9.6835 1.72721,-4.71938 3.6757,-9.25027 5.67699,-13.71066 1.90495,-3.73382 3.76069,-7.53864 5.99786,-10.84285 3.30013,-5.104962 5.73787,-7.87253 10.53652,-11.190071 1.03298,-0.609101 2.305,-1.169422 3.31559,-0.203851 0.45304,0.873322 0.56314,1.464239 0.0756,2.37543 -0.0899,0.168075 -0.17762,0.350392 -0.29845,0.465454 -2.13827,2.036294 -4.312,3.985514 -6.468,5.978284 -1.12348,0.626806 -2.33036,0.324283 -3.49991,0.203442 -1.21465,-0.245764 -2.41431,-0.668235 -3.25076,-2.143253 -0.80774,-1.623249 -1.19577,-3.609331 -1.33278,-5.620778 -0.14094,-1.956253 -0.11473,-3.961844 0.0667,-5.910617 0.88633,-5.385171 5.41728,-7.821611 8.84052,-8.06681 1.96335,0.01671 3.92706,0.0347 5.89018,-0.02584 0,0 -5.8341,6.434672 -5.8341,6.434672 z"
     inkscape:connector-curvature="0" />
  <path
     style="fill:#bdc2ff;fill-opacity:1;stroke:none;stroke-width:0.67080218;stroke-opacity:1"
     id="path5040"
     d="m 314.44084,85.76145 c -0.8314,-2.102593 -1.67359,-3.563911 -3.15357,-4.590169 -1.47366,-0.846189 -3.06124,-0.937119 -4.61847,-0.999123 -2.36226,0.534171 -6.61305,5.09766 4.88221,-4.570411 0.0999,-0.08398 -0.20415,0.166435 -0.28442,0.289673 -0.23856,0.366286 -0.24939,0.647107 -0.34804,1.130804 -0.33059,2.872702 0.31347,5.733913 0.94097,8.407446 0.59119,2.587735 1.35336,5.076616 2.51326,7.188821 0.89698,1.114943 2.0529,1.088606 3.15371,1.14849 1.30165,0.09225 2.58586,0.04339 3.83577,-0.547887 2.2193,-2.637928 -0.0319,0.09114 -5.24493,4.384605 -0.15917,0.13109 0.27739,-0.355606 0.40039,-0.557352 0.35487,-0.58203 0.54357,-1.235315 0.72466,-1.964462 0,0 6.52184,-4.675403 6.52184,-4.675403 v 0 c -0.90307,5.420755 -4.6758,7.714597 -8.12106,9.447625 -1.3074,0.371503 -2.62762,0.405453 -3.95428,0.277433 -1.29962,-0.144643 -2.54866,-0.403876 -3.49409,-1.912184 -1.14077,-2.278868 -1.93757,-4.864473 -2.5341,-7.575221 -0.68543,-2.825063 -1.39058,-5.79968 -1.24038,-8.858248 0.0391,-0.416412 0.0977,-1.189407 0.18974,-1.593843 0.99001,-4.349768 4.95075,-6.367986 7.88623,-6.39108 1.62416,0.140732 3.27431,0.34663 4.77203,1.396094 1.53973,1.260167 2.47441,2.884076 3.4271,5.088172 0,0 -6.25457,5.47622 -6.25457,5.47622 z"
     inkscape:connector-curvature="0" />
  <path
     style="fill:#bdc2ff;fill-opacity:1;stroke:none;stroke-width:0.67080218;stroke-opacity:1"
     id="path5042"
     d="m 329.7744,75.952102 c -0.0614,3.149849 -0.055,6.301936 -0.0438,9.452807 0.0362,2.213359 0.21546,4.442402 0.72998,6.524496 0.057,0.207561 0.11403,0.415112 0.17105,0.622672 0,0 -6.30274,5.353746 -6.30274,5.353746 v 0 c -0.0584,-0.220176 -0.11699,-0.440336 -0.1755,-0.660504 -0.53806,-2.214484 -0.71082,-4.5844 -0.76908,-6.93159 0.011,-3.128287 0.0183,-6.257848 -0.0438,-9.385081 0,0 6.43387,-4.976546 6.43387,-4.976546 z"
     inkscape:connector-curvature="0" />
  <path
     style="fill:#bdc2ff;fill-opacity:1;stroke:none;stroke-width:0.67080218;stroke-opacity:1"
     id="path5046"
     d="m 323.60951,84.473451 c 1.67063,-1.845731 3.32912,-3.717343 5.02299,-5.513845 2.79293,-3.331143 5.44914,-5.494744 8.8534,-8.052658 0.12147,-0.09126 0.24412,0.178859 0.36619,0.268289 0.89588,1.606182 0.66039,4.077385 0.66515,6.05323 -0.0176,3.795988 -0.0371,7.591822 -0.0371,11.387929 0.0479,0.881954 -0.11602,4.097845 0.35078,4.804523 0.0683,0.103295 0.0838,-0.142767 0.16372,-0.781319 -11.94537,10.26494 -6.62153,7.57484 -5.61164,4.379164 0.49186,-1.556464 0.76969,-3.321086 1.06818,-4.978696 0.38567,-2.347527 0.81699,-4.649441 1.54137,-6.810449 0.51901,-1.532618 1.34079,-2.672655 2.24373,-3.672439 1.8192,3.799412 5.14782,-7.056624 8.10533,-6.085643 0.15414,0.05062 0.61529,0.400404 0.76833,0.511853 0.85741,0.826581 1.20362,1.928421 1.42095,3.398117 0.22054,2.495799 0.19134,5.026509 0.18842,7.539613 -0.005,2.989787 -0.006,5.979565 0.002,8.969324 -0.14876,2.642407 0.33635,5.056066 0.98902,7.461206 0.36524,1.26251 0.8704,2.39071 1.41303,3.48637 0,0 -6.16692,5.53184 -6.16692,5.53184 v 0 c -0.54334,-1.19085 -1.07142,-2.39809 -1.48108,-3.7118 -0.70739,-2.51486 -1.26944,-5.0547 -1.1293,-7.83847 0.0151,-2.992401 0.0263,-5.984926 0.0171,-8.977416 -0.0148,-2.430394 0.005,-4.873225 -0.18699,-7.289877 -0.1433,-1.117336 -0.34412,-1.968174 -1.07888,-2.446763 -0.26687,-0.117865 -0.30002,-0.178969 -0.57487,-0.127217 -2.29018,0.431166 -7.25551,6.977229 4.43276,-4.392062 -0.94031,0.800002 -1.77586,1.823604 -2.4039,3.169058 -0.21954,0.599704 -0.46933,1.17587 -0.66022,1.79774 -0.46941,1.529175 -0.6422,3.217206 -0.98285,4.81166 -0.23044,1.332072 -0.49435,2.639227 -0.75774,3.956597 -0.0428,0.213956 -0.38324,2.035877 -0.40584,2.059848 -2.07085,2.197254 -4.28414,4.067619 -6.42621,6.10142 -0.15572,-0.07122 -0.32832,-0.08517 -0.46715,-0.213719 -0.95195,-0.881697 -0.63326,-4.42038 -0.68676,-5.770474 0.0132,-3.77919 0.0205,-7.558596 -0.006,-11.337685 -0.005,-0.460961 0.037,-4.539384 -0.24719,-4.668015 -2.18432,1.88655 2.37018,-2.046326 5.72439,-5.032382 0.15425,-0.137319 -0.32889,0.217792 -0.481,0.360481 -0.67403,0.632289 -1.21292,1.540272 -1.88178,2.184386 -1.69899,1.707648 -3.33265,3.569805 -4.95185,5.444406 0,0 -6.71062,4.023881 -6.71062,4.023881 z"
     inkscape:connector-curvature="0" />
  <path
     style="fill:#bdc2ff;fill-opacity:1;stroke:none;stroke-width:0.67080218;stroke-opacity:1"
     id="path5048"
     d="m 357.46527,74.536214 c -0.40971,5.037761 -0.6347,10.105924 -0.81656,15.173177 -0.19949,5.920215 -0.29481,11.854969 0.091,17.764579 0.31603,4.841 0.54417,6.10053 1.14052,10.94368 1.05572,7.90712 2.72097,15.60178 4.84731,22.99148 1.06362,3.69642 1.80249,5.74002 2.9987,9.25726 1.5254,3.94327 2.88778,8.27851 5.2436,11.25523 0,0 -6.06139,5.69771 -6.06139,5.69771 v 0 c -2.22937,-3.34869 -3.59041,-7.72241 -5.06863,-11.86295 -3.34995,-10.41771 -6.32635,-21.14688 -7.85259,-32.56361 -0.61977,-4.72913 -0.88776,-6.2559 -1.24801,-10.99008 -0.44933,-5.90504 -0.40321,-11.84212 -0.26414,-17.771386 0.11937,-5.018879 0.34257,-10.02637 0.51659,-15.040785 0,0 6.4736,-4.854305 6.4736,-4.854305 z"
     inkscape:connector-curvature="0" />
  <path
     style="fill:#bdc2ff;fill-opacity:1;stroke:none;stroke-width:0.67080218;stroke-opacity:1"
     id="path5050"
     d="m 358.21393,74.516339 c 1.92302,0.05799 3.84672,0.0408 5.77,0.02649 1.43877,-0.09235 2.50615,0.120498 3.32318,2.034674 0.47879,1.526101 0.49245,3.07381 0.0561,4.609509 -0.97088,2.023582 -2.46331,3.268431 -3.83957,4.564052 -2.79623,2.633609 -5.68907,5.033662 -8.54381,7.509089 -1.81079,1.570185 3.61569,-3.155925 5.4284,-4.720977 0.38453,-0.331989 -0.75455,0.701484 -1.12669,1.064529 -0.68219,0.658623 -1.31483,1.359053 -1.82725,2.311355 0,0 -6.6531,4.285818 -6.6531,4.285818 v 0 c 0.55159,-0.967224 0.97831,-2.032608 1.78564,-2.595342 2.35228,-2.693987 6.06535,-5.481716 7.9596,-7.155523 1.77422,-1.567761 -3.55355,3.122238 -5.32676,4.692634 -0.55291,0.489682 2.32001,-1.977866 1.65146,-1.487795 1.3496,-1.224897 2.73213,-2.433207 3.88743,-4.063443 0.67819,-1.031529 0.62335,-2.171067 0.30872,-3.475443 -0.62161,-1.427711 -1.87467,-1.165587 -2.86937,-1.191465 -1.9393,-0.01469 -3.87898,-0.0305 -5.81806,0.02654 0,0 5.83411,-6.434668 5.83411,-6.434668 z"
     inkscape:connector-curvature="0" />
  <path
     style="fill:#bdc2ff;fill-opacity:1;stroke:none;stroke-width:0.67080218;stroke-opacity:1"
     id="path5052"
     d="m 381.50053,81.844237 c -1.59321,-1.639839 -3.30577,-2.986394 -5.02576,-4.288405 -1.26805,-0.856182 -2.62364,-1.750575 -4.03771,-1.603228 -2.1171,2.074013 -5.30569,3.879029 4.76909,-3.991625 0.19874,-0.155254 -0.30708,0.495045 -0.44121,0.766454 -0.41231,0.834362 -0.54405,1.338896 -0.86678,2.295892 -0.8644,3.043972 -1.34527,6.278683 -1.654,9.546875 0.0145,1.545336 -0.58543,3.731817 0.10361,5.096435 0.688,0.51634 1.5226,0.405103 2.2724,0.41384 0.1214,0.295826 1.51201,-0.961631 1.37154,-0.841736 -1.89909,1.621076 -3.77314,3.310573 -5.68915,4.88513 -0.18738,0.153991 0.33959,-0.393006 0.49404,-0.615843 0.1596,-0.230258 0.29717,-0.493338 0.44575,-0.740004 0.89018,-1.882196 1.53527,-3.993959 2.20457,-6.067238 0.49708,-1.509854 1.19292,-2.819822 1.59081,-4.403925 1.00322,-4.651543 2.55126,-4.303535 6.98608,-7.230456 0.19059,-0.125794 0.75653,1.738845 0.78033,1.810154 0.80456,3.214331 1.05419,6.676584 1.46185,10.042356 0.45754,2.702212 0.64881,5.659052 1.64018,8.069538 0.21647,0.316165 0.307,0.595742 0.63237,0.586659 0.18041,-0.0054 0.63428,-0.360756 0.75211,-0.45616 0.16659,-0.134916 0.65419,-0.572955 0.49001,-0.431377 -1.87723,1.618813 -3.7528,3.242062 -5.6292,4.863101 0.80229,-0.67684 1.52196,-1.541918 2.29694,-2.283673 0,0 6.71898,-4.01672 6.71898,-4.01672 v 0 c -0.7332,0.855731 -1.55949,1.53866 -2.304,2.375704 -2.24232,1.950315 -4.46598,3.950923 -6.72697,5.850945 -0.93035,0.78182 -1.87783,0.20286 -2.46002,-1.01329 -0.97045,-2.592107 -1.19845,-5.627828 -1.66734,-8.483395 -0.40014,-3.243654 -0.63524,-6.601768 -1.45547,-9.676973 -0.0767,-0.211583 -0.12963,-0.447431 -0.23004,-0.634739 -0.0224,-0.04181 -0.13705,0.03438 -0.10651,0.0066 1.99721,-1.802789 4.01155,-3.561505 6.01733,-5.342261 -0.2719,0.174274 -0.33297,0.144222 -0.49986,0.604658 -0.078,0.215292 -0.11092,0.461704 -0.16638,0.692555 -0.30922,1.716296 -0.92092,3.118821 -1.58731,4.565755 -0.66476,2.126019 -1.35623,4.235 -2.1361,6.26993 -1.93508,4.468612 -5.5726,7.589127 -9.06721,8.028305 -0.96715,-0.05337 -1.96162,-0.122029 -2.66735,-1.264896 -0.75237,-1.785624 -0.40389,-3.878685 -0.27145,-5.87679 0.31241,-3.348764 0.7885,-6.655633 1.56627,-9.833813 0.16024,-0.583679 0.7748,-3.020343 1.14582,-3.398306 1.30981,-1.334301 4.92404,-6.11866 7.72651,-6.576327 1.4689,0.240348 2.84644,1.04601 4.15756,2.063092 1.7342,1.343134 3.43699,2.776403 5.11937,4.263142 0,0 -6.0537,5.973817 -6.0537,5.973817 z"
     inkscape:connector-curvature="0" />
  <path
     style="fill:#bdc2ff;fill-opacity:1;stroke:none;stroke-width:0.67080218;stroke-opacity:1"
     id="path5056"
     d="m 415.46861,73.618561 c 0.34342,3.891044 1.11766,7.630172 1.93806,11.338263 0.67399,2.934575 1.50098,5.789307 2.41705,8.567363 0,0 -6.2258,5.351572 -6.2258,5.351572 v 0 c -0.8398,-2.884698 -1.68827,-5.770262 -2.35697,-8.759306 -0.82915,-3.709313 -1.64155,-7.427899 -2.12192,-11.285288 0,0 6.34958,-5.212604 6.34958,-5.212604 z"
     inkscape:connector-curvature="0" />
  <path
     style="fill:#bdc2ff;fill-opacity:1;stroke:none;stroke-width:0.67080218;stroke-opacity:1"
     id="path5058"
     d="m 409.66421,88.205995 c 1.34665,-1.754861 2.66159,-3.564973 4.02614,-5.289635 3.05461,-3.939609 4.93357,-5.10276 9.13156,-8.733645 0.91663,-0.907394 1.42807,-1.085852 2.37454,-0.210894 1.23017,1.319762 1.5293,3.703576 1.90668,5.778436 0.50802,2.909651 0.91156,5.848267 1.18678,8.828676 -0.11708,0.0326 0.53681,5.130045 0.53827,2.840055 -11.61242,9.783532 -6.31125,7.69712 -5.60529,3.949234 0.23511,-1.248126 0.41415,-2.512014 0.66351,-3.75642 0.46344,-2.565081 1.13856,-5.003435 2.08818,-7.237059 0.93464,-1.965374 2.20736,-3.462187 3.36951,-5.099129 2.22153,-2.82208 5.17542,-4.794433 7.55992,-6.695861 0.43438,-0.346388 0.91945,0.271527 1.20385,0.647548 0.76179,1.720191 0.60208,4.007255 0.61134,5.98913 0.1272,3.561227 -0.20245,7.074528 -0.51035,10.591677 -0.06,2.257936 -0.59002,4.637226 -0.25801,6.887467 0,0 -6.35183,5.208925 -6.35183,5.208925 v 0 c -0.41239,-2.399982 0.1211,-4.9112 0.23854,-7.329587 0.30858,-3.461346 0.68865,-6.914701 0.52574,-10.423448 -0.0248,-1.5705 0.11885,-3.562415 -0.35975,-4.992566 -0.39488,-0.14566 -1.04515,0.460026 -0.76365,0.205871 10.09307,-9.112686 6.9297,-6.170487 4.76012,-4.207861 -1.19127,1.555133 -2.39166,3.138457 -3.45824,4.887514 -1.04497,2.050581 -1.73016,4.448648 -2.18696,6.941379 -1.83681,8.282881 1.29115,3.715321 -7.27817,11.164354 -0.13606,-0.118294 -0.28687,-0.204069 -0.40819,-0.354863 -0.72759,-0.904351 -0.55066,-2.941924 -0.7118,-4.162467 -0.22421,-2.944188 -0.60999,-5.835507 -1.12641,-8.694613 -0.32966,-1.722066 -0.54163,-3.953704 -1.66463,-4.902618 -0.73386,-0.295504 -1.33794,0.542611 -1.98387,0.979868 1.91129,-1.691012 3.82465,-3.37662 5.73385,-5.073034 0.15189,-0.134977 -0.31405,0.243445 -0.46182,0.388597 -0.53867,0.52913 -0.97282,1.253257 -1.48325,1.83872 -0.20936,0.240142 -0.42951,0.457813 -0.64425,0.68672 -1.36002,1.685482 -2.69798,3.403102 -3.96438,5.2456 0,0 -6.69768,4.103929 -6.69768,4.103929 z"
     inkscape:connector-curvature="0" />
  <path
     style="fill:#bdc2ff;fill-opacity:1;stroke:none;stroke-width:0.67080218;stroke-opacity:1"
     id="path5066"
     d="m 445.0247,78.313532 c -0.2741,3.046893 -0.35455,6.123759 -0.42188,9.194142 -0.0386,2.361035 -0.16873,4.712414 0.32312,6.982756 0.48409,1.931832 1.60384,2.465037 2.83762,2.774645 1.61378,0.240366 3.23217,0.372013 4.82116,-0.171123 0.62937,-0.239059 0.76344,-0.228738 1.32456,-0.662838 0.17992,-0.139186 0.69372,-0.627883 0.51804,-0.476729 -10.30766,8.869065 -6.42555,6.611265 -4.86022,3.700484 0.68007,-1.632401 0.70916,-3.597542 0.7598,-5.469233 -0.035,-2.263599 -0.72589,-1.905556 -2.00423,-2.091072 -2.50459,-0.36376 -5.0026,0.04939 -7.45897,0.791913 -0.34389,0.189961 -0.69757,0.343139 -1.03165,0.569863 -0.28915,0.19625 -1.10913,0.929602 -0.83253,0.695325 1.82019,-1.541734 3.60255,-3.191931 5.46331,-4.617674 0.21968,-0.168322 -0.3595,0.516347 -0.5045,0.818154 -0.14545,0.302707 -0.24026,0.65462 -0.36039,0.981926 0,0 -6.51962,4.521164 -6.51962,4.521164 v 0 c 0.0983,-0.400682 0.17057,-0.818321 0.29479,-1.202031 1.59032,-4.912289 5.86163,-6.67294 9.15745,-8.254792 2.52492,-0.621267 5.07864,-0.980824 7.63473,-0.581686 1.56085,0.35688 2.4968,0.801566 2.58153,3.448246 -0.0435,2.019894 -0.054,4.121657 -0.58317,6.008455 -1.78026,4.917523 -5.82003,7.117883 -9.30156,8.367983 -1.65961,0.33183 -3.34273,0.22416 -4.99747,-0.14935 -1.43724,-0.54831 -2.65656,-1.52635 -3.23089,-3.734952 -0.5497,-2.402994 -0.49361,-4.850175 -0.39499,-7.366847 0.066,-3.075083 0.18244,-6.1463 0.32523,-9.215353 0,0 6.46073,-4.86138 6.46073,-4.86138 z"
     inkscape:connector-curvature="0" />
  <path
     style="fill:#bdc2ff;fill-opacity:1;stroke:none;stroke-width:0.67080218;stroke-opacity:1"
     id="path5068"
     d="m 470.36202,36.903029 c -0.12636,6.096955 -0.1478,12.198271 -0.16337,18.297849 0.0193,7.303843 -0.17609,14.603205 -0.27361,21.904474 0.0183,3.334921 -0.22606,6.697102 0.0978,10.009392 0.24895,2.068792 0.57894,4.105306 0.91305,6.144497 0,0 -6.33606,5.189727 -6.33606,5.189727 v 0 c -0.31663,-2.080647 -0.66099,-4.147094 -0.90184,-6.253425 -0.36572,-3.410039 -0.0875,-6.855976 -0.0294,-10.29136 0.22867,-7.323152 0.48406,-14.652411 0.43146,-21.986058 -0.0155,-6.01532 -0.0355,-12.032525 -0.16336,-18.045121 0,0 6.42536,-4.969975 6.42536,-4.969975 z"
     inkscape:connector-curvature="0" />
  <path
     style="fill:#bdc2ff;fill-opacity:1;stroke:none;stroke-width:0.67080218;stroke-opacity:1"
     id="path5070"
     d="m 470.0229,104.41557 c 0.65744,1.93442 1.30332,3.87773 1.97292,5.80254 0,0 -6.21736,5.39619 -6.21736,5.39619 v 0 c -0.65348,-1.9201 -1.26216,-3.88098 -2.01012,-5.72251 0,0 6.25456,-5.47622 6.25456,-5.47622 z"
     inkscape:connector-curvature="0" />
  <path
     style="fill:#bdc2ff;fill-opacity:1;stroke:none;stroke-opacity:1"
     id="path5643"
     d="m 398.1475,82.062637 c -0.93923,-1.184092 -2.23825,-1.827929 -3.66788,-2.206353 -0.30946,-0.05446 -0.9949,-0.189754 -1.31495,-0.188276 -0.62123,0.0029 -1.10244,0.294458 -1.65213,0.538297 2.53362,-1.429731 5.06723,-2.859461 7.60085,-4.289192 -1.17976,0.704538 -1.19854,2.225013 -1.29793,3.455539 0.0481,1.690244 0.31477,3.365498 0.43798,5.052029 5.6e-4,1.56107 0.40507,3.018027 0.99595,4.444637 0.55561,1.092639 1.01248,2.324463 1.98206,3.121651 0.68069,0.774383 1.57954,0.938467 2.55436,1.041948 2.6553,-1.891808 5.61417,-2.84125 -6.6585,3.658779 -0.24013,0.127182 0.39793,-0.372568 0.56948,-0.583306 0.45683,-0.561199 0.81006,-1.207736 1.17881,-1.825442 2.68441,-4.872478 7.85252,-7.788791 13.16302,-9.333535 0,0 -7.25128,5.653249 -7.25128,5.653249 v 0 c -3.46729,1.447744 -2.72111,1.203176 5.55544,-3.510254 0.33687,-0.191843 -0.6437,0.43589 -0.93466,0.692062 -0.5295,0.466187 -1.10886,1.173952 -1.50332,1.757481 -0.21427,0.316984 -0.39329,0.656419 -0.58994,0.984628 -2.7955,4.985506 -1.49543,2.802978 -10.02173,7.779038 -0.38133,0.222549 -0.7617,0.135912 -1.16623,0.10935 -1.10813,-0.229628 -2.08974,-0.638279 -2.86233,-1.50101 -0.9751,-0.989367 -1.55314,-2.250065 -2.14381,-3.493242 -0.62567,-1.517134 -1.14104,-3.050192 -1.11553,-4.718427 -0.12222,-1.724455 -0.33902,-3.43662 -0.52156,-5.155004 0.0802,-1.454912 0.12642,-2.982848 0.8882,-4.268937 4.95831,-2.809016 7.01613,-5.995624 11.8151,-4.670946 1.54464,0.556826 2.91424,1.399813 4.0082,2.645296 0,0 -8.04767,4.80994 -8.04767,4.80994 z"
     inkscape:connector-curvature="0" />
</svg>
